<svg width="465" height="278" viewBox="0 0 465 278" fill="none" xmlns="http://www.w3.org/2000/svg">
<g clip-path="url(#clip0_193_63)">
<path d="M465 111.189C465 110.891 464.841 110.613 464.582 110.464L273.47 0.110521C273.206 -0.0384681 272.889 -0.0384681 272.624 0.110521L0.418187 157.227C0.158623 157.376 0 157.655 0 157.953C0 157.972 0.0240337 157.977 0.0240337 157.996C0.0240337 158.001 0.019227 158.001 0.019227 158.011V166.83C0.019227 167.128 0.17785 167.407 0.437414 167.556L191.544 277.88C191.674 277.957 191.823 277.995 191.967 277.995C192.111 277.995 192.256 277.957 192.39 277.88L464.567 120.763C464.827 120.614 464.986 120.335 464.986 120.037V111.218C464.986 111.218 464.986 111.218 464.986 111.213C464.986 111.204 465 111.199 465 111.189ZM273.047 1.81189L462.481 111.189L191.957 267.33L2.51874 157.953L273.047 1.81189ZM1.70159 159.467L191.131 268.82V275.703L1.70159 166.344V159.467ZM463.313 119.552L192.818 275.703V268.82L463.313 112.67V119.552ZM200.177 257.512C200.321 257.512 200.47 257.473 200.6 257.401L450.551 113.117C450.81 112.968 450.969 112.689 450.969 112.391C450.969 112.093 450.81 111.814 450.551 111.665L394.961 79.5748L396.951 78.4213C397.215 78.2771 397.374 77.9936 397.374 77.6956C397.374 77.3976 397.215 77.1189 396.956 76.9699L392.053 74.1343C391.788 73.9853 391.476 73.9901 391.212 74.1343L388.371 75.778L334.18 44.4854L336.15 43.3463C336.41 43.1973 336.568 42.9186 336.568 42.6206C336.568 42.3226 336.41 42.0439 336.15 41.8949L331.632 39.2515C331.377 39.1025 331.046 39.1025 330.791 39.2515L327.94 40.8808L273.571 9.50167L271.36 8.20402C271.096 8.05503 270.774 8.05503 270.509 8.20402L20.5537 152.512C20.2941 152.661 20.1355 152.94 20.1355 153.238C20.1355 153.536 20.2941 153.815 20.5537 153.964L199.749 257.396C199.879 257.473 200.028 257.507 200.172 257.507L200.177 257.512ZM332.507 45.4514L386.679 76.7296L380.574 80.2765L326.354 48.9983L332.507 45.4514ZM334.055 42.6062L324.244 48.2726C323.984 48.4216 323.826 48.7003 323.826 48.9983C323.826 49.2963 323.984 49.575 324.244 49.724L380.151 81.973C380.281 82.0499 380.43 82.0836 380.574 82.0836C380.718 82.0836 380.867 82.0451 380.997 81.973L391.63 75.826L394.845 77.686L392.846 78.8347L380.579 85.9429L316.933 49.1905L331.209 40.9336L334.064 42.6062H334.055ZM270.923 9.89096L326.253 41.842L314.818 48.4696C314.558 48.6186 314.4 48.8974 314.4 49.1954C314.4 49.4933 314.558 49.7721 314.818 49.9211L380.146 87.6491C380.276 87.726 380.425 87.7596 380.569 87.7596C380.714 87.7596 380.863 87.7212 380.992 87.6491L393.269 80.5456L447.532 111.872L448.436 112.391L200.167 255.7L22.659 153.243L270.923 9.89096ZM372.119 108.07C372.249 108.147 372.398 108.181 372.542 108.181C372.686 108.181 372.835 108.142 372.965 108.07L379.935 104.033C380.195 103.884 380.353 103.605 380.353 103.307C380.353 103.009 380.195 102.731 379.935 102.582L287.213 49.0896C286.948 48.9406 286.631 48.9406 286.367 49.0896L279.45 53.0787C279.19 53.2277 279.032 53.5064 279.032 53.8044C279.032 54.1024 279.19 54.3812 279.45 54.5301L372.119 108.07ZM286.79 50.7862L377.83 103.307L372.537 106.374L281.546 53.8044L286.785 50.7862H286.79ZM371.302 123.738C371.432 123.815 371.581 123.849 371.725 123.849C371.869 123.849 372.013 123.81 372.143 123.743L379.113 119.754C379.377 119.605 379.536 119.321 379.536 119.023C379.536 118.725 379.377 118.447 379.118 118.298L260.055 49.5702C259.79 49.4212 259.478 49.426 259.213 49.5654L252.244 53.5545C251.979 53.7035 251.821 53.9871 251.821 54.285C251.821 54.583 251.979 54.8618 252.239 55.0108L371.302 123.738ZM259.636 51.2668L377.008 119.019L371.725 122.042L254.354 54.2898L259.636 51.2668ZM357.319 131.817C357.449 131.894 357.598 131.928 357.742 131.928C357.886 131.928 358.035 131.889 358.165 131.817L365.082 127.828C365.342 127.679 365.5 127.4 365.5 127.102C365.5 126.804 365.342 126.526 365.082 126.377L246.024 57.6493C245.759 57.5003 245.437 57.5003 245.183 57.6493L238.261 61.6336C237.997 61.7826 237.838 62.0613 237.838 62.3593C237.838 62.6573 237.997 62.936 238.256 63.085L357.319 131.817ZM245.601 59.3459L362.977 127.102L357.742 130.121L240.361 62.3593L245.601 59.3459ZM349.249 151.791L202.681 67.1846L206.421 65.0267L352.988 149.634L349.249 151.791ZM339.558 157.386L192.991 72.779L196.731 70.621L343.293 155.228L339.558 157.386ZM329.868 162.985L183.305 78.3781L187.045 76.2201L333.612 160.827L329.868 162.985ZM320.173 168.579L173.605 83.9724L177.345 81.8144L323.912 166.421L320.173 168.579ZM310.482 174.174L163.92 89.5667L167.659 87.4088L314.227 172.016L310.482 174.174ZM300.792 179.768L154.229 95.161L157.969 93.0031L304.536 177.61L300.792 179.768ZM291.101 185.362L144.534 100.755L148.274 98.5974L294.841 183.204L291.101 185.362ZM281.406 190.956L134.839 106.35L138.579 104.192L285.146 188.799L281.406 190.956ZM229.272 172.049L125.153 111.944L128.893 109.786L233.012 169.891L229.272 172.049ZM262.025 202.145L115.458 117.538L119.198 115.38L265.765 199.987L262.025 202.145ZM252.335 207.739L105.772 123.133L109.512 120.975L256.075 205.581L252.335 207.739ZM242.645 213.334L96.0821 128.727L99.8217 126.569L246.389 211.176L242.645 213.334ZM90.1265 132.163L166.626 176.327L162.886 178.485L86.3869 134.321L90.1265 132.163Z" fill="#94A3B8"/>
</g>
<defs>
<clipPath id="clip0_193_63">
<rect width="465" height="278" fill="white"/>
</clipPath>
</defs>
</svg>
