<svg width="199" height="487" viewBox="0 0 199 487" fill="none" xmlns="http://www.w3.org/2000/svg">
<g clip-path="url(#clip0_193_60)">
<path d="M199 111.245C199 110.933 198.833 110.641 198.561 110.485L6.85249 0.115598C6.57981 -0.0404961 6.24147 -0.0404961 5.96879 0.115598L0.439327 3.29791C0.166641 3.45401 0 3.74606 0 4.05825C0 4.07335 0.0201989 4.07839 0.0201989 4.09349C0.0201989 4.1086 0 4.11363 0 4.12874V375.745C0 376.057 0.166641 376.349 0.439327 376.505L192.142 486.869C192.142 486.869 192.142 486.874 192.142 486.879C192.279 486.96 192.43 486.995 192.582 486.995C192.733 486.995 192.885 486.954 193.021 486.879L198.551 483.697C198.823 483.541 198.99 483.249 198.99 482.936V111.32C198.99 111.32 198.97 111.295 198.97 111.28C198.97 111.265 198.99 111.255 198.99 111.24L199 111.245ZM6.40812 1.8981L196.349 111.245L192.587 113.41L2.65111 4.06328L6.40812 1.8981ZM1.76741 5.65947L191.708 115.006V484.593L1.76741 375.241V5.65947ZM197.238 482.433L193.476 484.598V115.011L197.238 112.846V482.433ZM107.357 123.43L86.0424 111.159V72.6794L106.666 84.5527V91.6978L93.6272 84.1952V92.1762L105.923 99.2558V106.325L93.6272 99.2457V108.38L107.352 116.28L107.357 123.43ZM81.3866 151.724L76.2813 148.783V122.851L90.0418 130.772V135.575L81.3866 130.591V136.507L89.4763 141.165V145.928L81.3866 141.27V151.714V151.724ZM100.682 162.832L105.716 165.732V156.477C106.201 156.794 106.787 157.172 107.458 157.56C110.478 159.297 113.043 159.941 114.77 159.07C116.114 158.375 116.856 156.658 116.856 154.115C116.856 151.573 115.871 148.823 114.442 146.729C112.942 144.473 110.7 142.469 107.564 140.661C104.459 138.874 102.252 137.841 100.682 137.257V162.832ZM105.716 144.246C106.095 144.387 106.787 144.664 107.837 145.268C110.372 146.729 111.801 148.944 111.801 151.366C111.801 153.985 110.13 154.614 107.423 153.053C106.701 152.635 106.166 152.288 105.716 151.91V144.246ZM73.0545 167.696L68.5704 165.113V161.457L81.4017 168.844V172.499L76.8469 169.876V185.445L73.0545 183.26V167.696ZM95.7682 176.8C90.8347 173.96 87.6281 176.402 87.6281 182.162C87.6281 187.641 90.5266 193.638 95.4905 196.498C100.369 199.307 103.701 197.409 103.701 191.095C103.701 185.772 100.889 179.745 95.7682 176.8ZM95.6975 193.159C93.1626 191.699 91.6275 188.154 91.6275 184.383C91.6275 180.652 93.1121 178.723 95.6622 180.193C98.2679 181.694 99.6969 185.455 99.6969 188.909C99.6969 192.681 98.2477 194.63 95.6975 193.159ZM115.169 203.814V203.895L123.067 208.441V212.057L110.079 204.579V202.238L118.048 193.643V193.522L110.822 189.363V185.788L122.946 192.767V195.269L115.169 203.814ZM68.6057 218.744L56.8095 211.951V190.188L61.1018 192.661V210.294L68.6057 214.615V218.744ZM88.6279 220.3C89.749 219.716 90.3701 218.285 90.3701 216.14C90.3701 213.995 89.5621 211.745 88.3502 209.937C87.0928 208.059 85.2143 206.382 82.5733 204.866C79.9676 203.366 78.1245 202.505 76.7964 202.016V223.462L81.0382 225.904V218.119C81.4169 218.416 81.932 218.754 82.4874 219.071C85.0022 220.521 87.1786 221.055 88.6279 220.3ZM82.4521 215.279C81.8512 214.932 81.4017 214.635 81.0382 214.308V207.913C81.3462 207.973 81.932 208.23 82.7955 208.728C84.9315 209.957 86.1232 211.835 86.1232 213.824C86.1232 216.05 84.7245 216.589 82.4521 215.279ZM103.06 220.869V225.395L110.008 229.398V233.371L103.06 229.373V234.534L110.822 239.001V243.049L98.7678 236.11V214.348L110.423 221.06V225.108L103.06 220.869ZM119.391 247.903C120.461 248.679 122.027 249.741 124.239 251.01C127.945 253.145 130.965 253.971 132.965 253.215C134.777 252.47 136.106 250.376 136.106 246.206C136.106 242.354 134.863 238.981 132.914 236.191C131.086 233.553 128.758 231.458 125.173 229.388C123.017 228.145 120.966 227.122 119.396 226.538L119.391 247.903ZM123.688 232.505C124.052 232.636 124.673 232.873 125.617 233.417C129.288 235.531 131.581 239.273 131.566 243.749C131.566 248.951 129.031 249.953 125.168 247.692C124.633 247.385 124.047 247.047 123.683 246.76L123.688 232.505ZM59.7232 235.073C60.0363 235.29 60.4302 235.562 60.8796 235.818C62.8642 236.961 64.571 237.349 65.7072 236.77C66.5858 236.322 67.0857 235.184 67.0857 233.512C67.0857 231.805 66.4495 230.008 65.485 228.618C64.5003 227.138 63.0207 225.808 60.9301 224.605C58.8749 223.421 57.4306 222.747 56.3955 222.349V239.268L59.7232 241.186V235.068V235.073ZM59.7232 227.012C59.9656 227.072 60.4302 227.258 61.122 227.656C62.7935 228.618 63.7428 230.078 63.7428 231.669C63.7428 233.417 62.6369 233.855 60.8443 232.822C60.3595 232.545 60.0161 232.309 59.7232 232.057V227.012ZM76.9681 237.138V240.713L82.4369 243.86V246.997L76.9681 243.85V247.938L83.0732 251.453V254.63L73.5898 249.172V232.017L82.7803 237.309V240.486L76.9681 237.138ZM92.5768 251.564C92.5768 254.978 94.3341 258.175 97.3539 259.912C98.3739 260.496 99.4899 260.864 100.146 260.965L100.661 264.278C100.04 264.278 98.6466 263.83 96.8337 262.788C91.6931 259.832 89.0369 254.645 89.0369 249.761C89.0369 243.885 92.6576 242.712 97.1569 245.305C98.9142 246.317 100.227 247.47 100.828 248.175L100.136 250.874C99.4647 250.169 98.5153 249.308 97.3084 248.613C94.6371 247.072 92.5667 247.747 92.5667 251.564H92.5768ZM115.962 266.655L110.614 263.578V270.487L107.236 268.538V251.383L116.326 256.614V259.792L110.62 256.503V260.436L115.967 263.513V266.65L115.962 266.655ZM127.773 263.09C126.082 262.118 124.461 261.302 123.239 260.834V277.672C124.067 278.266 125.309 279.102 127.051 280.104C129.965 281.781 132.364 282.486 133.934 281.881C135.363 281.317 136.398 279.646 136.398 276.353C136.398 273.337 135.434 270.633 133.879 268.432C132.45 266.378 130.601 264.721 127.773 263.09ZM127.773 277.506C127.359 277.269 126.895 276.997 126.617 276.761V265.562C126.895 265.643 127.375 265.839 128.137 266.277C131.036 267.944 132.843 270.854 132.828 274.419C132.828 278.508 130.829 279.303 127.773 277.506ZM64.0206 269.313L56.143 264.776V250.562L63.763 254.948V257.571L58.9506 254.802V257.782L63.4853 260.396V263.014L58.9506 260.401V263.774L64.0206 266.695V269.313ZM78.3669 275.869C79.5586 275.401 80.4221 274.031 80.4221 271.292C80.4221 268.79 79.6293 266.584 78.3366 264.771C77.1448 263.014 75.6299 261.665 73.2818 260.315C71.8678 259.5 70.5398 258.855 69.5046 258.457V272.395C70.2115 272.924 71.2316 273.624 72.6758 274.459C75.0896 275.849 77.0741 276.398 78.3669 275.869ZM73.2767 272.304C72.9333 272.103 72.5546 271.886 72.3122 271.67V262.38C72.5546 262.44 72.9485 262.586 73.5696 262.944C75.9682 264.323 77.468 266.776 77.4478 269.706C77.4478 273.12 75.8117 273.765 73.2767 272.309V272.304ZM88.6279 283.483L85.8152 281.866V267.652L93.3696 272.002V274.626L88.6279 271.896V275.154L93.0565 277.707V280.326L88.6279 277.773V283.493V283.483ZM98.49 282.249C98.49 277.405 101.49 276.433 105.231 278.588C106.681 279.424 107.782 280.416 108.281 280.98L107.711 283.196C107.14 282.591 106.347 281.897 105.363 281.328C103.141 280.049 101.414 280.602 101.414 283.739C101.414 286.6 102.878 289.228 105.383 290.668C106.226 291.156 107.16 291.494 107.711 291.569L108.125 294.309C107.61 294.288 106.453 293.941 104.954 293.08C100.697 290.628 98.49 286.297 98.49 282.249ZM122.36 302.899L112.756 297.37V295.623L118.633 289.278V289.198L113.306 286.131V283.473L122.274 288.634V290.502L116.513 296.796V296.877L122.36 300.24V302.899ZM135.242 297.133C134.414 295.9 133.192 294.802 131.465 293.81C129.758 292.828 128.551 292.249 127.688 291.952V305.97L130.465 307.567V302.481C130.707 302.657 131.051 302.899 131.414 303.105C133.05 304.047 134.464 304.384 135.434 303.911C136.156 303.533 136.555 302.572 136.555 301.182C136.555 299.792 136.04 298.302 135.242 297.133ZM131.394 300.598C130.98 300.361 130.687 300.19 130.465 299.983V295.814C130.657 295.844 131.051 295.99 131.601 296.313C132.995 297.118 133.793 298.367 133.793 299.676C133.793 301.147 132.879 301.454 131.394 300.598ZM58.2437 290.331L55.9359 289.001V277.289L62.1421 280.864V283.05L58.2437 280.804V283.463L61.8845 285.557V287.702L58.2437 285.608V290.331ZM69.4137 287.234V289.656L73.1555 291.811V293.956L69.4137 291.801V294.58L73.5898 296.982V299.168L67.1059 295.437V283.719L73.3828 287.335V289.52L69.4137 287.234ZM84.7447 305.593L78.3971 301.937V290.22L80.7099 291.549V301.041L84.7447 303.362V305.593ZM93.6474 310.91C96.6116 312.617 98.6466 311.444 98.6466 307.632C98.6466 304.374 96.9398 300.693 93.819 298.896C90.7993 297.159 88.8703 298.669 88.8703 302.204C88.8703 305.542 90.6276 309.173 93.6474 310.91ZM93.7484 300.965C95.334 301.877 96.2126 304.213 96.2126 306.318C96.2126 308.579 95.3138 309.772 93.7635 308.881C92.2284 307.995 91.279 305.824 91.279 303.518C91.279 301.252 92.193 300.074 93.7433 300.965H93.7484ZM105.701 313.483C105.908 313.604 106.186 313.8 106.479 313.971C107.842 314.757 109.014 315.034 109.791 314.646C110.392 314.319 110.721 313.554 110.721 312.4C110.721 311.247 110.291 310.009 109.635 309.077C108.963 308.055 107.943 307.154 106.529 306.338C105.13 305.532 104.131 305.079 103.424 304.792V316.348L105.701 317.657V313.483ZM105.701 307.964C105.873 308.025 106.186 308.125 106.65 308.392C107.807 309.057 108.443 310.059 108.443 311.172C108.443 312.365 107.686 312.642 106.459 311.937C106.13 311.751 105.888 311.57 105.701 311.424V307.964ZM122.683 327.431L114.77 322.874V321.444L119.618 316.212V316.132L115.22 313.599V311.414L122.603 315.663V317.214L117.876 322.396V322.476L122.688 325.246L122.683 327.431ZM130.48 320.125C129.324 319.46 128.223 318.906 127.375 318.574V330.089C127.945 330.497 128.788 331.061 129.98 331.746C131.98 332.899 133.601 333.352 134.671 332.939C135.656 332.552 136.363 331.409 136.363 329.188C136.363 327.124 135.707 325.276 134.636 323.745C133.672 322.355 132.414 321.237 130.48 320.125ZM130.48 329.974C130.187 329.802 129.879 329.626 129.687 329.475V321.811C129.879 321.842 130.207 321.988 130.723 322.29C132.707 323.433 133.929 325.407 133.914 327.859C133.914 330.638 132.571 331.177 130.48 329.974ZM62.036 320.628C62.036 319.636 61.6724 318.594 61.1069 317.788C60.5362 316.907 59.6576 316.122 58.4507 315.427C57.2438 314.732 56.4005 314.364 55.7945 314.138V324.027L57.7437 325.15V321.575C57.9154 321.675 58.1578 321.852 58.4153 322.003C59.5717 322.667 60.5716 322.889 61.2432 322.557C61.7633 322.3 62.036 321.625 62.036 320.628ZM58.3951 320.245C58.1023 320.079 57.8952 319.918 57.7387 319.787V316.847C57.875 316.887 58.1528 316.967 58.5517 317.194C59.5313 317.758 60.0868 318.634 60.0868 319.586C60.0868 320.618 59.4505 320.85 58.3951 320.245ZM72.1254 333.428L65.3486 329.526V328.297L69.5046 323.821V323.74L65.7476 321.575V319.707L72.0749 323.352V324.661L68.0048 329.108V329.188L72.1254 331.56V333.428ZM82.2097 338.045C83.053 337.698 83.659 336.736 83.659 334.828C83.659 333.04 83.1086 331.489 82.1946 330.17C81.3512 328.967 80.2807 327.995 78.6244 327.043C77.6245 326.469 76.6954 326.011 75.9682 325.754V335.603C76.453 335.961 77.1751 336.459 78.1952 337.043C79.902 338.025 81.2957 338.393 82.2097 338.045ZM77.9326 328.513C78.1043 328.534 78.382 328.654 78.8314 328.911C80.5231 329.883 81.5886 331.61 81.5734 333.705C81.5734 336.087 80.417 336.535 78.6244 335.502C78.382 335.361 78.1093 335.205 77.9326 335.064V328.513ZM89.5419 335.276V337.577L92.6829 339.385V341.212L89.5419 339.405V343.453L87.5574 342.31V332.265L92.905 335.341V337.209L89.5419 335.276ZM98.9748 340.704V342.809L102.181 344.657V346.484L98.9748 344.637V347.018L102.56 349.083V350.951L97.0054 347.753V337.708L102.383 340.805V342.673L98.9698 340.709L98.9748 340.704ZM108.478 344.309V352.451L111.943 354.445V356.349L106.494 353.212V343.166L108.478 344.309ZM119.426 360.82C121.976 362.29 123.703 361.298 123.703 358C123.703 355.221 122.254 352.084 119.563 350.533C116.992 349.052 115.321 350.357 115.321 353.373C115.321 356.233 116.836 359.33 119.426 360.82ZM119.512 352.29C120.876 353.076 121.633 355.1 121.633 356.887C121.633 358.831 120.855 359.858 119.532 359.093C118.219 358.338 117.411 356.48 117.411 354.496C117.411 352.552 118.184 351.525 119.512 352.29ZM129.258 361.313C129.258 363.338 130.293 365.165 132.051 366.178C132.652 366.525 133.308 366.782 133.707 366.812L134 368.766C133.636 368.756 132.808 368.519 131.758 367.91C128.738 366.173 127.188 363.096 127.188 360.236C127.188 356.822 129.309 356.137 131.95 357.653C132.985 358.247 133.742 358.922 134.106 359.33L133.707 360.931C133.293 360.493 132.742 359.979 132.051 359.581C130.48 358.68 129.258 359.088 129.258 361.313ZM57.4155 337.627V339.611L60.1575 341.192V342.819L57.4155 341.238V344.772L55.6733 343.77V334.994L60.3443 337.683V339.309L57.4155 337.627ZM65.6213 342.35V344.178L68.4138 345.785V347.371L65.6213 345.764V347.869L68.7623 349.677V351.303L63.8842 348.494V339.717L68.5906 342.426V344.052L65.6264 342.345L65.6213 342.35ZM73.9332 345.508V352.617L76.9681 354.365V356.031L72.191 353.282V344.506L73.9332 345.508ZM83.4721 359.934C85.694 361.213 87.214 360.342 87.214 357.441C87.214 355.019 85.9364 352.26 83.5933 350.911C81.3513 349.621 79.8868 350.759 79.8868 353.383C79.8868 355.885 81.2149 358.635 83.4721 359.934ZM83.558 352.476C84.7295 353.151 85.4062 354.888 85.4062 356.475C85.4062 358.181 84.7346 359.068 83.558 358.393C82.4016 357.728 81.7148 356.097 81.7148 354.39C81.7148 352.683 82.3864 351.802 83.558 352.476ZM92.0415 360.342C92.0415 362.089 92.9404 363.715 94.4907 364.612C95.0057 364.909 95.5764 365.12 95.9197 365.16L96.1773 366.857C95.8692 366.837 95.1421 366.621 94.2281 366.092C91.5921 364.571 90.2287 361.923 90.2287 359.42C90.2287 356.404 92.092 355.805 94.3846 357.124C95.2835 357.643 95.9702 358.237 96.2631 358.604L95.9197 359.994C95.5764 359.637 95.0764 359.189 94.4705 358.841C93.107 358.056 92.0415 358.393 92.0415 360.342ZM101.267 366.883C101.439 367.023 101.631 367.129 101.873 367.27C102.888 367.854 103.752 368.076 104.338 367.779C104.802 367.532 105.045 366.953 105.045 366.082C105.045 365.211 104.716 364.304 104.232 363.589C103.717 362.814 102.954 362.139 101.904 361.535C100.833 360.921 100.096 360.573 99.5606 360.382V369.038L101.267 370.02V366.883ZM101.267 362.754C101.404 362.794 101.631 362.884 101.99 363.091C102.853 363.589 103.333 364.34 103.333 365.135C103.333 366.047 102.762 366.278 101.848 365.75C101.591 365.599 101.419 365.463 101.262 365.332V362.749L101.267 362.754ZM113.841 377.26L107.908 373.846V372.774L111.544 368.871V368.791L108.251 366.893V365.266L113.786 368.454V369.607L110.236 373.479V373.559L113.841 375.634V377.26ZM122.653 381.299C123.395 381.012 123.91 380.115 123.91 378.449C123.91 376.898 123.431 375.548 122.633 374.42C121.891 373.358 120.941 372.492 119.497 371.661C118.633 371.163 117.805 370.77 117.169 370.518V379.133C117.598 379.461 118.24 379.869 119.133 380.382C120.618 381.233 121.84 381.591 122.653 381.299ZM118.911 372.95C119.048 372.99 119.31 373.096 119.689 373.318C121.173 374.174 122.103 375.659 122.087 377.477C122.087 379.582 121.072 379.989 119.502 379.043C119.295 378.922 119.053 378.786 118.916 378.665V372.945L118.911 372.95ZM129.031 378.856V380.84L131.773 382.416V384.043L129.031 382.462V385.997L127.289 384.995V376.218L131.96 378.907V380.533L129.031 378.846V378.856ZM57.2943 371.631L60.1727 373.287V374.874L55.638 372.26V363.881L57.2943 364.833V371.631ZM65.5557 369.556C64.5558 368.982 63.8489 368.655 63.3287 368.433V376.691L64.9649 377.633V374.657C65.1012 374.738 65.3082 374.894 65.5153 375.015C66.4798 375.568 67.3079 375.77 67.8786 375.463C68.3078 375.271 68.5502 374.697 68.5502 373.866C68.5502 373.071 68.2421 372.18 67.7725 371.515C67.2877 370.76 66.5656 370.145 65.5506 369.561L65.5557 369.556ZM65.5203 373.544C65.2779 373.403 65.1062 373.308 64.9699 373.187V370.724C65.0709 370.745 65.3133 370.845 65.6415 371.032C66.4495 371.5 66.9191 372.205 66.9191 372.995C66.9191 373.831 66.3838 374.038 65.5203 373.544ZM73.4535 375.689V377.437L76.1248 378.977V380.523L73.4535 378.982V380.966L76.4379 382.683V384.229L71.7971 381.56V373.182L76.2813 375.765V377.316L73.4535 375.689ZM86.1636 385.468C86.1636 383.998 85.6789 382.688 84.9366 381.586C84.2296 380.584 83.3307 379.788 81.9522 378.992C81.124 378.514 80.3312 378.101 79.7303 377.87V386.092C80.1444 386.409 80.7453 386.797 81.5936 387.286C83.0227 388.111 84.1791 388.419 84.9568 388.152C85.6486 387.875 86.1636 387.054 86.1636 385.468ZM81.9522 386.022C81.7451 385.901 81.5229 385.775 81.3815 385.654V380.176C81.5179 380.216 81.7603 380.317 82.1239 380.523C83.5378 381.339 84.4164 382.759 84.4164 384.506C84.4164 386.53 83.4317 386.873 81.9522 386.022ZM91.0922 392.673L89.4359 391.722V383.343L93.8847 385.906V387.457L91.0922 385.851V387.794L93.6979 389.295V390.805L91.0922 389.305V392.673ZM98.9597 395.654L101.944 397.371V398.922L97.3034 396.253V387.875L101.788 390.458V392.009L98.9597 390.382V392.13L101.631 393.67V395.216L98.9597 393.675V395.659V395.654ZM106.908 400.191L109.786 401.848V403.434L105.252 400.82V392.442L106.908 393.393V400.191ZM116.149 398.605C114.013 397.376 112.614 398.434 112.614 400.936C112.614 403.318 113.872 405.911 116.028 407.15C118.149 408.373 119.598 407.578 119.598 404.839C119.598 402.497 118.376 399.884 116.149 398.605ZM116.114 405.73C115.008 405.095 114.356 403.565 114.356 401.898C114.356 400.272 114.993 399.446 116.098 400.08C117.235 400.735 117.856 402.361 117.856 403.872C117.856 405.498 117.22 406.364 116.114 405.73ZM126.36 413.097C123.84 411.646 122.547 409.114 122.547 406.732C122.547 403.872 124.304 403.298 126.511 404.567C127.354 405.055 128.011 405.629 128.304 405.957L127.96 407.266C127.632 406.918 127.167 406.49 126.582 406.153C125.289 405.408 124.269 405.735 124.269 407.603C124.269 409.27 125.132 410.841 126.597 411.682C127.097 411.969 127.632 412.16 127.96 412.185L128.218 413.802C127.91 413.781 127.238 413.595 126.354 413.087L126.36 413.097ZM136.035 414.698C136.464 414.512 136.706 413.932 136.706 413.102C136.706 412.306 136.398 411.415 135.929 410.75C135.444 409.995 134.722 409.38 133.702 408.796C132.702 408.222 131.995 407.895 131.48 407.674V415.931L133.116 416.873V413.892C133.252 413.973 133.459 414.129 133.667 414.25C134.631 414.804 135.464 415.005 136.035 414.698ZM133.672 412.779C133.429 412.638 133.257 412.543 133.121 412.422V409.96C133.222 409.98 133.465 410.08 133.793 410.267C134.601 410.735 135.07 411.44 135.07 412.23C135.07 413.066 134.535 413.273 133.672 412.779ZM56.9307 387.029L59.395 388.449V389.798L55.5319 387.573V380.463L56.9307 381.268V387.029ZM63.8994 385.241C63.0359 384.743 62.4349 384.436 62.0007 384.269V391.299L63.3792 392.094V389.551C63.5156 389.672 63.6721 389.758 63.864 389.869C64.6922 390.347 65.3991 390.513 65.8637 390.266C66.2424 390.09 66.4343 389.602 66.4343 388.887C66.4343 388.212 66.1768 387.467 65.7779 386.883C65.3638 386.248 64.7427 385.725 63.8994 385.241ZM63.8489 388.625C63.657 388.514 63.5055 388.388 63.3843 388.318V386.213C63.4853 386.233 63.6772 386.304 63.9701 386.47C64.6619 386.868 65.0558 387.492 65.0558 388.126C65.0558 388.882 64.5912 389.053 63.8489 388.625ZM70.4842 394.869L73.0343 396.339V397.648L69.0854 395.372V388.262L72.898 390.458V391.767L70.4842 390.377V391.848L72.7616 393.157V394.466L70.4842 393.157V394.869ZM77.6599 393.162C76.9529 392.754 76.2813 392.406 75.7612 392.19V399.179C76.1046 399.456 76.6247 399.793 77.3468 400.211C78.5537 400.906 79.5384 401.153 80.1898 400.936C80.7958 400.69 81.225 399.985 81.225 398.635C81.225 397.407 80.8109 396.294 80.1747 395.367C79.5889 394.511 78.8365 393.837 77.6599 393.162ZM77.6599 399.119C77.468 399.008 77.2812 398.902 77.16 398.791V394.144C77.2812 394.214 77.4882 394.295 77.7962 394.471C79.0031 395.166 79.7454 396.349 79.7454 397.855C79.7454 399.521 78.9173 399.884 77.6599 399.119ZM83.9216 396.807L87.6988 398.983V400.292L85.3203 398.922V400.549L87.5422 401.828V403.137L85.3203 401.858V404.718L83.9216 403.912V396.807ZM91.9203 407.21L94.4553 408.671V409.98L90.5216 407.714V400.604L94.3341 402.799V404.109L91.9203 402.719V404.189L94.1978 405.498V406.807L91.9203 405.498V407.21ZM98.5961 411.012L101.06 412.432V413.781L97.1973 411.556V404.446L98.5961 405.252V411.012ZM106.388 409.622C104.56 408.57 103.388 409.481 103.388 411.626C103.388 413.65 104.459 415.856 106.287 416.908C108.1 417.951 109.322 417.226 109.322 414.924C109.322 412.94 108.281 410.715 106.388 409.622ZM106.352 415.68C105.423 415.146 104.853 413.822 104.853 412.432C104.853 411.042 105.403 410.327 106.352 410.871C107.317 411.425 107.837 412.835 107.837 414.109C107.837 415.498 107.302 416.229 106.352 415.68ZM113.185 417.226C113.185 418.656 113.907 419.945 115.149 420.66C115.578 420.906 116.043 421.098 116.321 421.098L116.528 422.487C116.27 422.497 115.7 422.326 114.942 421.893C112.806 420.665 111.72 418.489 111.72 416.465C111.72 414.043 113.22 413.555 115.083 414.627C115.806 415.045 116.361 415.519 116.598 415.821L116.326 416.933C116.033 416.646 115.634 416.299 115.154 416.022C114.053 415.388 113.19 415.644 113.19 417.231L113.185 417.226ZM121.118 418.182C120.254 417.684 119.653 417.377 119.219 417.21V424.24L120.598 425.035V422.492C120.734 422.613 120.891 422.699 121.083 422.81C121.911 423.288 122.618 423.454 123.082 423.207C123.461 423.031 123.653 422.543 123.653 421.828C123.653 421.153 123.395 420.408 122.996 419.824C122.582 419.189 121.961 418.666 121.118 418.182ZM121.067 421.566C120.876 421.455 120.724 421.329 120.603 421.259V419.154C120.704 419.174 120.896 419.245 121.189 419.411C121.88 419.809 122.274 420.433 122.274 421.067C122.274 421.823 121.81 421.989 121.067 421.566ZM127.738 422.034L125.86 428.062L127.309 428.897L127.738 427.316L129.516 428.338L129.995 430.443L131.495 431.304L129.581 423.097L127.738 422.034ZM127.945 426.244L128.309 424.945C128.41 424.567 128.516 424.109 128.602 423.721L128.617 423.731C128.703 424.22 128.824 424.804 128.93 425.302L129.309 427.029L127.945 426.244ZM135.979 426.737C135.136 426.249 134.53 425.942 134.101 425.775V432.805L135.479 433.6V431.058C135.616 431.178 135.772 431.264 135.964 431.375C136.792 431.853 137.499 432.019 137.964 431.773C138.327 431.586 138.534 431.108 138.534 430.393C138.534 429.718 138.277 428.973 137.878 428.389C137.464 427.754 136.843 427.231 135.979 426.737ZM135.949 430.136C135.757 430.025 135.606 429.899 135.484 429.829V427.724C135.585 427.744 135.777 427.815 136.07 427.981C136.762 428.379 137.156 429.003 137.156 429.638C137.156 430.393 136.691 430.559 135.949 430.136ZM135.691 349.773L54.9361 303.282V296.761L135.691 343.252V349.773ZM135.691 402.809L54.9361 356.318V349.798L135.691 396.289V402.809Z" fill="#94A3B8"/>
</g>
<defs>
<clipPath id="clip0_193_60">
<rect width="199" height="487" fill="white"/>
</clipPath>
</defs>
</svg>
