<svg width="228" height="201" viewBox="0 0 228 201" fill="none" xmlns="http://www.w3.org/2000/svg">
<g clip-path="url(#clip0_193_66)">
<path d="M214.924 118.116V92.2294C214.924 84.8333 209.959 77.8317 201.012 72.6545C182.774 62.1028 153.229 62.1028 135.04 72.6545C125.356 78.2262 120.342 86.0167 121.325 94.0537C121.292 94.0866 121.292 94.1195 121.325 94.1523V94.251C121.325 94.251 121.276 94.3003 121.276 94.3496V103.077C120.735 102.781 120.194 102.387 119.653 101.992V94.8525C119.653 94.8525 119.678 94.818 119.678 94.7933L119.727 86.1646C119.727 86.1646 119.707 86.1301 119.702 86.1054V85.9625V77.531C119.801 70.0363 115.671 62.5909 108.248 56.5755V27.583C108.248 27.5336 108.248 27.435 108.199 27.3857V27.2378C108.15 19.8911 103.185 13.0374 94.3364 7.90946C76.0983 -2.63731 46.5045 -2.63731 28.3648 7.91439C18.6805 13.4861 13.6662 21.2766 14.6494 29.3136C14.6166 29.3465 14.6166 29.3794 14.6494 29.4122C14.6003 29.4616 14.6003 29.5602 14.6003 29.6095V54.263C5.21087 60.5743 0.0491591 68.7099 0.0491591 77.2894V94.4482L0 103.028C0 112.593 6.29237 121.518 17.6973 128.125C29.2497 134.831 44.5382 138.381 60.0724 138.381C67.5938 138.381 75.1643 137.543 82.3907 135.817H82.489C90.5511 134.436 99.5964 135.866 105.987 139.613C106.724 140.057 107.462 140.501 108.15 141.093V148.291C108.101 148.341 108.101 148.39 108.101 148.439L108.052 165.697C108.052 175.213 114.442 184.138 126.093 190.893C137.695 197.648 152.934 201.001 168.173 201.001C183.413 201.001 198.603 197.648 210.155 190.893C221.609 184.236 227.951 175.312 227.951 165.845V157.758C228 157.61 228 157.413 228 157.265V140.057C228.098 132.069 223.428 124.279 214.924 118.116ZM11.7982 98.2941C11.9948 98.4421 12.1423 98.59 12.3389 98.6886C13.5188 99.6254 14.6003 100.365 15.6818 101.055C16.37 101.499 17.0582 101.894 17.7464 102.288C30.9211 109.98 49.0116 113.53 66.8072 112.297C70.1992 112.1 73.5912 111.706 76.934 111.114C78.458 110.867 79.9819 110.572 81.4567 110.226V117.08C59.7775 122.011 35.1979 119.003 18.5821 109.388C17.8939 108.994 17.2549 108.599 16.6649 108.205C16.6158 108.156 16.5666 108.156 16.5175 108.106C15.2393 107.317 14.1087 106.479 13.0272 105.641C12.978 105.592 12.9288 105.542 12.8797 105.493C11.6016 104.507 10.5692 103.619 9.68435 102.732C9.04528 102.14 8.45537 101.499 7.91462 100.858C7.88185 100.825 7.84907 100.792 7.8163 100.759C7.78353 100.727 7.76714 100.694 7.76714 100.661C7.17723 100.02 6.68564 99.3789 6.24321 98.7379C6.14489 98.5407 5.99741 98.3435 5.89909 98.1955C5.80078 98.0969 5.75162 98.0476 5.70246 97.949C5.50582 97.7518 5.4075 97.5052 5.26003 97.2587C5.01423 96.8642 4.76843 96.4698 4.5718 96.1246C4.12937 95.4343 3.78525 94.6947 3.4903 93.9551V93.9058C3.34282 93.6593 3.2445 93.4127 3.19534 93.1662C2.90039 92.5252 2.70375 91.8842 2.55627 91.2432C2.50712 91.046 2.4088 90.7995 2.35964 90.6516L2.26132 90.2078C2.21216 89.9613 2.163 89.7147 2.11384 89.4682C2.06468 89.0244 1.96636 88.5807 1.91721 88.0876C1.86805 87.7424 1.86805 87.3973 1.86805 87.1015C1.86805 87.0028 1.81889 86.9535 1.81889 86.9042C1.76973 86.8056 1.76973 86.7563 1.76973 86.5591V85.8195H1.81889C2.163 86.6577 2.50712 87.3973 2.90039 87.989C3.83441 89.8626 5.11255 91.6377 6.58732 93.3141C7.27555 94.1523 7.86546 94.7933 8.50453 95.3357C8.94696 95.8288 9.48771 96.3219 10.0285 96.8149C10.5692 97.308 11.1591 97.8011 11.7982 98.2941ZM92.1734 109.635C93.304 109.733 94.4838 109.881 95.6145 110.079C99.3997 110.769 102.988 112.001 106.036 113.777L106.479 114.072C106.921 114.319 107.364 114.565 107.806 114.96C108.986 115.7 109.871 116.488 110.559 117.327L110.854 117.622C111.1 117.918 111.345 118.165 111.542 118.51C111.591 118.51 111.788 118.806 111.837 118.855C112.034 119.151 112.181 119.447 112.378 119.792C112.574 120.186 112.771 120.63 112.918 121.074C113.017 121.321 113.115 121.616 113.164 121.962L113.312 122.553V123.441C113.312 123.884 113.263 124.328 113.164 124.772C113.115 125.166 112.968 125.512 112.82 125.906C112.624 125.66 112.476 125.462 112.279 125.314C112.132 125.117 111.984 124.92 111.69 124.575C111.591 124.427 111.444 124.279 111.345 124.23C111.345 124.23 111.149 124.032 111.1 124.032C111.1 123.983 111.001 123.934 110.903 123.884C110.608 123.539 110.264 123.243 109.969 123.096C109.576 122.652 109.133 122.356 108.838 122.159C108.396 121.814 107.904 121.518 107.364 121.222L106.921 120.926C104.217 119.348 101.12 118.165 97.8266 117.425C96.5485 117.08 95.2704 116.834 93.9431 116.686C93.7464 116.636 93.5498 116.636 93.3532 116.636C91.8784 116.439 90.3545 116.341 88.8797 116.341H88.6831C86.815 116.341 84.947 116.439 83.1772 116.735V109.881C83.9638 109.733 84.7503 109.684 85.5369 109.585C86.0285 109.536 86.5692 109.536 87.11 109.536C88.7814 109.438 90.4528 109.487 92.1734 109.635ZM1.76973 94.3003C1.81889 94.3989 1.86805 94.4975 1.91721 94.6454C1.96636 94.7933 2.06468 94.9413 2.11384 95.0892C2.4088 95.7302 2.75291 96.3712 3.09702 97.0122C3.29366 97.3573 3.53946 97.7518 3.73609 98.0969C3.93273 98.4914 4.22768 98.8858 4.47348 99.231C4.52264 99.2803 4.62096 99.4282 4.62096 99.4282C4.71928 99.4775 4.76843 99.5761 4.86675 99.724C5.11255 100.069 5.35834 100.464 5.6533 100.809C5.89909 101.154 6.19405 101.499 6.53816 101.844C7.12807 102.584 7.76714 103.225 8.50453 103.915C8.56843 103.979 8.64709 104.048 8.711 104.112C8.96662 104.364 9.23208 104.61 9.49754 104.857C10.1956 105.503 10.9379 106.164 11.7982 106.824C12.0931 107.071 12.3389 107.268 12.6339 107.515C13.5188 108.205 14.5019 108.895 15.6818 109.635C16.0259 109.881 16.4191 110.079 16.7633 110.276C17.1074 110.522 17.4023 110.72 17.7464 110.917C22.0724 113.431 26.9392 115.502 32.1501 117.08C43.0142 120.433 55.4023 121.764 67.5938 120.827C68.8719 120.778 70.1501 120.63 71.4282 120.482C73.1979 120.285 75.0168 120.039 76.7865 119.743C77.1307 119.693 77.4256 119.644 77.7697 119.545C78.9987 119.348 80.1785 119.102 81.3583 118.855V125.709C59.7775 130.64 35.1979 127.681 18.5821 118.066C8.65201 112.396 2.70375 104.803 1.76973 96.7656V94.3003ZM83.1772 118.51C83.9638 118.362 84.7503 118.263 85.5369 118.214C86.5201 118.116 87.5032 118.066 88.5356 118.066C94.8279 118.066 101.169 119.595 106.036 122.405L106.479 122.701C106.921 122.948 107.364 123.194 107.855 123.589C108.199 123.786 108.494 123.983 108.887 124.378L109.772 125.117C109.821 125.216 109.871 125.265 109.969 125.265C109.969 125.314 110.166 125.512 110.215 125.512C110.264 125.561 110.362 125.66 110.411 125.758L110.559 125.906C110.657 126.005 110.755 126.103 110.952 126.35C111.296 126.695 111.591 127.139 111.886 127.583C111.05 128.963 110.362 130.294 109.821 131.576C108.937 130.837 107.953 130.146 106.872 129.555C101.759 126.596 95.1721 124.969 88.6339 124.969C86.815 124.969 84.947 125.117 83.1772 125.364V118.51ZM140.546 171.219C149.149 173.832 158.686 175.164 168.223 175.164C177.71 175.164 187.247 173.832 195.85 171.219C199.291 170.184 202.585 168.902 205.731 167.423C207.255 166.683 208.779 165.894 210.204 165.056C211.483 164.267 212.466 163.675 213.301 163.084C213.695 162.886 213.99 162.64 214.285 162.393C215.169 161.802 215.956 161.21 216.595 160.668C217.578 159.879 218.463 159.09 219.25 158.251L220.43 157.117C220.921 156.674 221.265 156.23 221.511 155.835C222.052 155.293 222.543 154.751 222.986 154.11C223.035 154.011 223.133 153.912 223.133 153.863L223.428 153.469C223.723 153.074 224.018 152.68 224.215 152.285C224.51 151.792 224.854 151.25 225.247 150.56L225.345 150.362C225.64 149.771 225.886 149.228 226.132 148.686C226.181 148.538 226.23 148.439 226.329 148.341C226.279 148.439 226.279 148.538 226.279 148.637V148.883C226.279 149.623 226.23 150.313 226.132 151.003C226.132 151.102 226.132 151.201 226.083 151.348C225.984 152.039 225.837 152.729 225.69 153.321V153.419C225.64 153.567 225.591 153.715 225.542 153.814C225.395 154.307 225.247 154.8 225.05 155.244C225.001 155.49 224.952 155.687 224.854 155.934C224.706 156.378 224.51 156.822 224.264 157.265C224.166 157.463 224.067 157.709 223.92 157.956C223.92 158.005 223.92 158.054 223.871 158.104C223.576 158.695 223.182 159.287 222.838 159.879C222.494 160.372 222.15 160.963 221.708 161.555C221.265 162.196 220.724 162.837 220.135 163.478C219.79 163.922 219.348 164.366 218.906 164.809L218.316 165.45C217.431 166.338 216.349 167.225 215.12 168.211C214.678 168.606 214.186 168.951 213.695 169.296C213.301 169.592 212.908 169.888 212.466 170.184C212.417 170.184 212.417 170.233 212.367 170.233C211.384 170.874 210.401 171.515 209.32 172.156C205.092 174.621 200.323 176.643 195.26 178.171C190.246 179.7 184.887 180.785 179.382 181.426H179.332C172.155 182.215 164.732 182.215 157.506 181.475C157.113 181.426 156.719 181.376 156.326 181.327C151.558 180.735 146.937 179.848 142.512 178.566C136.908 176.988 131.648 174.868 126.978 172.156C121.325 168.852 116.999 165.105 114.049 160.963C113.754 160.569 113.508 160.125 113.213 159.681C112.968 159.287 112.722 158.843 112.525 158.399C112.476 158.301 112.378 158.251 112.329 158.153C112.181 157.956 112.083 157.709 111.984 157.463C111.984 157.43 111.968 157.397 111.935 157.364V157.315C111.935 157.265 111.886 157.265 111.886 157.216C111.69 156.822 111.542 156.427 111.345 155.983C111.198 155.589 111.05 155.293 110.952 154.997C110.805 154.603 110.706 154.258 110.608 153.863C110.608 153.715 110.559 153.617 110.51 153.469C110.461 153.321 110.411 153.124 110.411 152.926C110.313 152.63 110.215 152.335 110.166 152.039C110.116 151.694 110.067 151.348 110.018 151.053C110.018 150.905 110.018 150.707 109.969 150.56C109.92 150.313 109.871 150.067 109.871 149.869V149.623C109.871 149.623 109.821 149.573 109.871 149.524C109.821 149.179 109.821 148.785 109.821 148.439V148.291C110.018 148.834 110.264 149.327 110.559 149.869C110.903 150.51 111.247 151.151 111.64 151.792C112.132 152.581 112.673 153.469 113.361 154.258L113.508 154.504C113.754 154.8 113.951 155.047 114.246 155.392C114.295 155.49 114.344 155.54 114.344 155.54C114.393 155.589 114.442 155.687 114.492 155.737L114.836 156.131C115.229 156.526 115.573 156.969 115.917 157.265C116.114 157.463 116.261 157.61 116.458 157.808L116.704 158.005C117.146 158.498 117.638 158.942 118.326 159.533C119.506 160.569 120.686 161.506 121.915 162.344C123.242 163.33 124.668 164.218 126.093 165.056C127.568 165.894 129.043 166.683 130.616 167.423C133.762 168.902 137.056 170.184 140.546 171.219ZM109.821 156.871C110.067 157.364 110.215 157.66 110.362 158.054C110.411 158.104 110.411 158.153 110.461 158.202C110.608 158.597 110.805 158.942 110.952 159.188C111.149 159.583 111.345 159.928 111.591 160.273C111.69 160.47 111.837 160.668 111.935 160.815C112.181 161.21 112.427 161.604 112.673 161.949C115.18 165.549 118.719 168.852 123.193 171.811C124.127 172.452 125.11 173.044 126.093 173.635C127.568 174.473 129.092 175.262 130.665 176.002C133.762 177.481 137.105 178.763 140.546 179.799C149.149 182.412 158.686 183.743 168.223 183.743C177.71 183.743 187.247 182.412 195.85 179.799C199.291 178.763 202.585 177.481 205.731 176.002C207.255 175.262 208.779 174.473 210.204 173.635C211.286 172.994 212.367 172.353 213.351 171.663C214.088 171.17 214.776 170.677 215.464 170.184C215.71 169.987 215.956 169.789 216.202 169.592C216.251 169.543 216.349 169.493 216.398 169.444C217.431 168.606 218.414 167.768 219.299 166.831C219.397 166.782 219.446 166.683 219.545 166.634L220.135 165.993C220.577 165.549 221.019 165.056 221.413 164.612C221.953 164.02 222.396 163.429 222.986 162.689C223.035 162.64 223.084 162.541 223.133 162.492C223.527 161.949 223.969 161.358 224.313 160.766C224.411 160.618 224.51 160.47 224.559 160.322C224.854 159.829 225.149 159.386 225.395 158.843C225.444 158.843 225.444 158.794 225.444 158.794C225.493 158.745 225.493 158.695 225.542 158.597C225.739 158.153 225.935 157.758 226.132 157.315C226.23 157.216 226.23 157.167 226.279 157.068V157.265C226.181 166.091 220.184 174.473 209.27 180.834C186.657 193.95 149.69 193.95 126.929 180.834C116.704 174.967 110.657 167.225 109.821 159.188V156.871ZM213.252 99.5268V123.539C213.252 124.723 213.105 125.758 212.908 126.695C212.023 130.64 209.516 134.338 205.534 137.641C204.06 138.874 202.241 140.106 200.225 141.29C182.331 151.595 153.524 151.595 135.974 141.29C134.106 140.254 132.336 139.071 130.665 137.74C125.602 133.598 122.996 128.815 122.996 123.539V99.9706C123.242 100.414 123.488 100.907 123.832 101.351C124.078 101.795 124.373 102.288 124.717 102.732C124.962 103.225 125.307 103.669 125.7 104.112C126.388 104.951 127.175 105.789 128.01 106.627C128.649 107.268 129.387 107.909 130.173 108.55C130.223 108.55 130.272 108.599 130.37 108.649C131.796 109.783 133.369 110.867 135.04 111.804C138.137 113.629 141.627 115.108 145.265 116.291C146.248 116.587 147.182 116.883 148.116 117.129C148.166 117.129 148.215 117.179 148.264 117.179C148.362 117.228 148.461 117.228 148.608 117.228C154.802 118.904 161.439 119.743 168.075 119.743C174.81 119.743 181.545 118.855 187.788 117.129C188.771 116.883 189.754 116.636 190.688 116.291C194.228 115.206 197.521 113.777 200.471 112.1C200.52 112.051 200.962 111.854 201.012 111.804C201.552 111.508 202.093 111.163 202.585 110.818C203.125 110.522 203.617 110.177 204.109 109.832C204.6 109.487 205.092 109.142 205.534 108.747C206.911 107.662 208.14 106.528 209.221 105.345L210.254 104.162C211.384 102.781 212.318 101.351 213.105 99.8227C213.154 99.724 213.203 99.6254 213.252 99.5268ZM141.627 155.786C134.696 151.842 130.96 146.812 130.96 141.241V140.156C131.157 140.254 131.304 140.402 131.501 140.501C131.943 140.846 132.435 141.142 132.877 141.438C133.614 141.931 134.401 142.375 135.138 142.769C144.135 148.094 156.031 150.707 167.977 150.707C179.922 150.707 191.917 148.094 201.11 142.769C202.191 142.128 203.224 141.487 204.158 140.797C204.502 140.6 204.895 140.353 205.239 140.106V141.241C205.239 146.714 201.552 151.743 194.572 155.786C179.824 164.267 156.129 164.267 141.627 155.786ZM135.925 74.1337C153.573 63.8778 182.429 63.8778 200.127 74.1337C208.533 79.0151 213.203 85.4743 213.203 92.2294V92.328C213.154 99.0337 208.386 105.592 200.323 110.226L199.734 110.522C196.784 112.199 193.589 113.579 190.147 114.664C189.263 114.96 188.329 115.206 187.345 115.453C175.154 118.855 161.144 118.855 148.854 115.502H148.657C147.723 115.256 146.789 114.96 145.806 114.615C142.217 113.53 138.924 112.051 135.876 110.325C134.254 109.388 132.68 108.353 131.304 107.219C131.255 107.169 131.206 107.12 131.107 107.071C126.437 103.274 123.635 98.7872 122.996 94.251C121.964 86.7563 126.683 79.4589 135.925 74.1337ZM115.475 96.8642C114.836 95.7302 114.541 94.9906 114.541 93.9058C114.541 92.8211 114.836 91.7363 115.475 90.7502C116.507 89.1723 117.343 87.5945 118.031 86.0167V86.0709C118.031 86.0709 118.006 86.0956 118.006 86.1153L117.957 94.7933C117.957 94.7933 117.982 94.8279 117.982 94.8525V94.9462V100.567C117.49 100.123 117.097 99.6797 116.704 99.2359C116.31 98.7921 116.016 98.2991 115.721 97.8553C115.671 97.806 115.671 97.7567 115.622 97.7567H115.573V97.3129C115.573 97.165 115.573 97.0122 115.475 96.8642ZM24.2846 75.4157C24.727 75.7115 25.1203 76.0074 25.5627 76.2539C26.4968 76.8949 27.4308 77.4866 28.4631 78.029C29.5938 78.6699 30.7736 79.3109 31.9534 79.9026C34.3622 81.0367 36.9677 82.0721 39.6714 82.861C40.9987 83.3048 42.3752 83.65 43.7516 83.9951C46.5537 84.6361 49.4541 85.1292 52.4036 85.4743C55.3532 85.8195 58.3027 85.9674 61.3014 85.9674C64.3001 85.9674 67.2988 85.8195 70.2484 85.4743C73.1488 85.1292 76.0983 84.6361 78.9004 83.9951C80.326 83.65 81.7025 83.3048 83.0789 82.861C85.7827 82.0721 88.3881 81.0367 90.8461 79.9026C92.075 79.3109 93.304 78.6699 94.4347 78.029C95.9586 77.0921 97.3351 76.2046 98.564 75.3171V76.5004C98.564 81.9735 94.8279 87.0028 87.8474 91.046C73.1488 99.5268 49.4541 99.5268 35.0013 91.046C28.0207 87.1015 24.2846 82.0721 24.2846 76.5004V75.4157ZM98.859 72.8517V72.901C98.8262 72.9339 98.7934 72.9503 98.7607 72.9503C97.2859 74.183 95.6145 75.3664 93.5498 76.5497C75.6559 86.8549 46.8486 86.8549 29.2988 76.5497C27.3816 75.465 25.5627 74.2816 23.9897 72.9503C20.2044 69.9426 17.7956 66.4911 16.8616 62.7931C16.5175 61.4125 16.3208 60.0812 16.3208 58.7992V35.1812C16.6158 35.7235 16.9107 36.3152 17.2549 36.8576C17.7464 37.6465 18.2872 38.3861 18.8771 39.1257C19.3687 39.7667 19.9094 40.4077 20.4994 41.0487C20.696 41.1966 20.8435 41.3939 21.0401 41.5911C21.63 42.1335 22.3182 42.7251 23.0065 43.3168C23.7439 43.9578 24.5796 44.5988 25.4644 45.1905C26.3984 45.8808 27.3325 46.4725 28.3648 47.0642C29.1514 47.5079 29.8887 47.9517 30.6261 48.2475C32.8875 49.4802 35.4929 50.565 38.5408 51.5511C41.2445 52.4386 43.8008 53.0796 46.1604 53.4741C51.0272 54.4602 56.1889 55.0026 61.3506 55.0026C66.0699 55.0026 70.8383 54.5588 75.3609 53.7206C78.6546 53.1289 81.5058 52.4386 84.1113 51.5511C86.3726 50.8115 88.6339 49.924 90.8461 48.8885C92.075 48.3461 93.2057 47.7051 94.3364 47.0642C98.0233 44.944 101.022 42.4786 103.283 39.816C103.726 39.2736 104.168 38.7313 104.561 38.1889C104.611 38.1889 104.611 38.1396 104.611 38.1396C104.955 37.5972 105.299 37.1041 105.643 36.5125C105.987 35.9701 106.282 35.4277 106.528 34.836V58.7992C106.528 60.7222 106.184 62.6452 105.446 64.4202C104.512 66.7376 103.038 68.8579 101.022 70.8794C100.383 71.5697 99.6455 72.2107 98.859 72.8517ZM29.2497 9.3936C38.0983 4.26567 49.6999 1.70171 61.3506 1.70171C73.0013 1.70171 84.6028 4.26567 93.4515 9.3936C101.907 14.3243 106.528 20.7835 106.528 27.5879C106.479 34.2936 101.809 40.7036 93.4515 45.5849C92.4191 46.2259 91.2885 46.7683 90.1578 47.3107C87.9457 48.3461 85.7335 49.1844 83.5705 49.8747C81.0634 50.7622 78.2613 51.4525 75.066 52.0442C65.7257 53.7699 55.599 53.6713 46.5045 51.7976C44.1449 51.4032 41.7361 50.7622 39.0323 49.8747C36.132 48.9378 33.6248 47.9024 31.3635 46.719C30.6753 46.3739 29.9379 46.0287 29.2497 45.5849C21.7283 41.2459 17.1565 35.5263 16.3208 29.5109C15.2885 22.0162 20.0078 14.7188 29.2497 9.3936ZM14.6003 56.3339V58.7992C14.6003 60.2291 14.7969 61.659 15.1902 63.1875C16.1734 67.1814 18.6805 70.8301 22.564 74.0351V76.5004C22.564 82.7624 26.5951 88.2848 34.1164 92.5252C41.5886 96.9135 51.4204 99.083 61.3506 99.083C71.2807 99.083 81.1125 96.9135 88.7322 92.5252C96.2536 88.1369 100.235 82.6145 100.235 76.5004V73.9365C103.48 71.2246 105.741 68.2662 107.019 65.1105C107.855 63.0889 108.248 61.018 108.248 58.8485C114.59 64.3709 118.031 70.9287 118.031 77.5359C118.031 78.1769 117.982 78.8179 117.933 79.5082C117.884 79.6068 117.884 79.7054 117.884 79.804C117.834 80.2971 117.736 80.7408 117.638 81.3818C117.589 81.4311 117.589 81.5298 117.589 81.5791C117.048 84.3403 115.819 87.1015 114 89.8133C113.213 91.1446 112.82 92.5252 112.82 93.9058C112.82 95.3357 113.164 96.2726 113.902 97.5545V97.9983C114 98.3434 114.147 98.59 114.295 98.7872C114.393 98.9351 114.442 98.9844 114.541 99.1324V99.1817C115.229 100.217 116.016 101.154 117.097 102.091C117.441 102.485 117.834 102.781 118.277 103.126C119.162 103.817 120.145 104.458 121.128 105.049L121.276 105.099V123.539C121.276 124.378 121.325 125.216 121.472 126.054C121.62 127.287 121.964 128.519 122.406 129.703C122.898 130.985 123.586 132.316 124.422 133.549C124.815 134.14 125.307 134.781 125.798 135.373C126.781 136.606 127.961 137.74 129.288 138.825V141.241C129.288 147.503 133.27 153.025 140.792 157.265C142.66 158.35 144.675 159.336 146.789 160.125C148.952 160.963 151.164 161.654 153.475 162.196C162.766 164.415 173.237 164.415 182.577 162.196C184.937 161.654 187.198 160.963 189.361 160.125C191.524 159.336 193.539 158.35 195.457 157.265C202.978 152.877 206.911 147.355 206.911 141.241V138.726C207.943 137.838 208.877 136.951 209.713 136.014C210.549 135.077 211.286 134.14 211.925 133.154C213.203 131.182 214.088 129.16 214.58 127.089C214.825 126.005 214.924 124.871 214.924 123.539V120.285C222.347 126.005 226.329 132.957 226.329 140.057C226.329 140.895 226.23 141.882 226.083 142.917C226.034 143.262 225.935 143.607 225.837 144.1C225.788 144.446 225.69 144.741 225.542 145.185C225.444 145.53 225.345 145.875 225.198 146.27C225.001 146.862 224.805 147.453 224.559 147.996C224.313 148.538 224.067 149.08 223.821 149.573L223.723 149.771C223.379 150.362 223.084 150.855 222.74 151.447C222.543 151.792 222.298 152.137 222.052 152.483L221.855 152.778C221.806 152.828 221.757 152.828 221.757 152.877C221.708 152.926 221.658 153.025 221.609 153.074H221.56C221.216 153.666 220.823 154.159 220.233 154.701V154.751C219.938 155.096 219.643 155.49 219.25 155.885L218.07 157.068C217.283 157.808 216.448 158.547 215.514 159.336C214.825 159.879 214.088 160.47 213.252 161.062C213.006 161.259 212.712 161.407 212.367 161.654C211.532 162.245 210.598 162.837 209.32 163.577C186.706 176.742 149.739 176.742 126.978 163.577C125.552 162.788 124.176 161.9 122.898 160.963C121.718 160.125 120.587 159.238 119.309 158.153C118.818 157.709 118.326 157.265 117.884 156.822L117.638 156.526C117.49 156.427 117.392 156.328 117.195 156.082C116.802 155.737 116.458 155.342 116.114 154.948L115.77 154.553C115.737 154.553 115.721 154.537 115.721 154.504C115.671 154.455 115.573 154.356 115.524 154.307C115.327 154.011 115.131 153.765 114.885 153.469L114.737 153.222C114.098 152.433 113.558 151.595 113.115 150.905C112.378 149.721 111.739 148.489 111.247 147.157C111.05 146.714 110.903 146.27 110.756 145.777L110.313 143.952V143.854C110.166 143.361 110.018 142.769 109.969 141.832C109.871 141.586 109.871 141.339 109.871 141.043C109.871 140.945 109.871 140.797 109.821 140.698V140.6C109.772 138.134 110.166 135.718 111.05 133.302C111.591 131.626 112.476 129.9 113.656 128.125C113.656 128.076 113.656 128.026 113.705 127.977C113.754 127.928 113.754 127.878 113.803 127.878C113.853 127.73 113.951 127.632 114.049 127.484C114.737 126.103 115.032 124.772 115.032 123.441C115.032 123.046 115.032 122.701 114.983 122.307L114.836 121.666C114.787 121.222 114.688 120.778 114.541 120.433C114.344 119.94 114.147 119.447 113.902 119.052C113.705 118.658 113.508 118.263 113.312 117.968C113.213 117.77 113.066 117.573 113.017 117.524C112.771 117.179 112.427 116.834 112.083 116.439L111.837 116.193C111.1 115.256 110.067 114.368 108.838 113.53C108.396 113.185 107.904 112.889 107.364 112.593L106.921 112.297C100.088 108.353 90.6986 106.775 82.2924 108.303H82.0957C60.2691 113.481 35.3946 110.522 18.5821 100.809C17.8939 100.414 17.2549 100.02 16.5175 99.5268C15.3868 98.8365 14.207 97.949 12.8797 96.9135C11.6507 95.9767 10.6184 95.0399 9.68435 94.103C9.09444 93.5607 8.55369 92.969 7.86546 92.2294C6.489 90.6022 5.30919 88.9258 4.37516 87.1508C4.03105 86.5591 3.73609 85.8688 3.44114 85.2771C3.44114 85.1785 3.44114 85.1292 3.39198 85.0799C3.14618 84.5375 2.99871 84.0444 2.80207 83.502C2.65459 82.9597 2.50712 82.4666 2.35964 81.9735L2.26132 81.5791C2.26132 81.5298 2.26132 81.4804 2.21216 81.4311C2.21216 81.2832 2.21216 81.2339 2.163 81.1846V80.9381C2.06468 80.4943 1.96636 80.0506 1.91721 79.6068C1.91721 79.5575 1.91721 79.3109 1.86805 79.2616V78.9658C1.81889 78.4234 1.76973 77.881 1.76973 77.2894C1.76973 69.5975 6.34153 62.2014 14.6003 56.3339ZM18.5821 126.646C7.76714 120.384 1.81889 112.051 1.72057 103.225C4.42432 109.438 9.88098 115.108 17.6973 119.545C29.2988 126.251 44.5873 129.801 60.1216 129.801C67.2988 129.801 74.4761 129.062 81.4075 127.435L81.3583 134.288C59.6792 139.268 35.1488 136.261 18.5821 126.646ZM106.872 138.134C101.759 135.176 95.1721 133.598 88.5847 133.598C86.7659 133.598 84.947 133.697 83.1281 133.943V127.139C90.9444 125.906 99.6455 127.336 105.987 131.034C107.216 131.724 108.298 132.464 109.232 133.351C108.937 134.091 108.74 134.781 108.593 135.521C108.543 135.62 108.543 135.718 108.543 135.817C108.445 136.359 108.347 136.852 108.298 137.395C108.199 137.888 108.15 138.43 108.15 138.923C107.708 138.627 107.314 138.381 106.872 138.134ZM226.23 165.845C226.23 174.671 220.184 183.053 209.27 189.413C186.657 202.578 149.739 202.578 126.929 189.413C115.868 183.004 109.772 174.572 109.772 165.697C112.427 171.959 118.031 177.728 126.044 182.313C137.695 189.019 152.934 192.372 168.173 192.372C183.413 192.372 198.603 189.019 210.155 182.313C218.119 177.629 223.625 171.91 226.23 165.697V165.845ZM145.757 105.592C147.232 106.479 148.952 107.268 150.82 108.008C150.82 108.057 150.918 108.057 150.968 108.057C156.129 109.98 162.078 110.966 168.026 110.966C173.925 110.966 179.873 110.029 185.035 108.057C185.133 108.057 185.232 108.057 185.281 108.008C187.05 107.317 188.722 106.479 190.295 105.592C196.342 102.091 199.684 97.3573 199.734 92.328C199.832 87.2987 196.342 82.368 190.295 78.8672C178.005 71.7177 158.047 71.7177 145.757 78.8672C139.71 82.368 136.22 87.2987 136.269 92.328C136.367 97.3573 139.71 102.091 145.757 105.592ZM146.642 80.3464C158.44 73.4927 177.612 73.4927 189.41 80.3464C194.965 83.5513 198.062 87.9397 198.062 92.328C198.013 96.7163 194.916 100.907 189.41 104.112C187.984 104.951 186.461 105.69 184.838 106.331C184.789 106.38 184.74 106.38 184.691 106.38C184.642 106.38 184.642 106.38 184.592 106.43C174.515 110.177 161.537 110.177 151.459 106.43C151.41 106.38 151.361 106.38 151.312 106.38C149.591 105.69 148.018 104.901 146.642 104.112C141.136 100.907 138.088 96.7163 137.99 92.328C137.99 87.8904 141.087 83.5513 146.642 80.3464ZM39.0815 40.8515C41.7361 42.38 44.8331 43.662 48.3726 44.5988H48.4709C52.5019 45.6836 56.9263 46.2259 61.3014 46.2259C65.3816 46.2259 69.511 45.7822 73.3454 44.8453C77.2781 43.9085 80.7193 42.5279 83.6197 40.8515C89.6662 37.3507 93.0091 32.6172 93.0582 27.5879C93.1565 22.5586 89.6662 17.6279 83.6197 14.1271C71.3299 6.97756 51.3713 6.97756 39.0815 14.1271C33.0349 17.6279 29.5446 22.5586 29.643 27.5879C29.6921 32.6172 33.0349 37.3507 39.0815 40.8515ZM39.9664 15.6063C51.7646 8.75261 70.9366 8.75261 82.7348 15.6063C88.2898 18.8112 91.3868 23.1503 91.3868 27.5879C91.3376 31.9762 88.2406 36.1673 82.7348 39.3723C79.9819 40.9501 76.6882 42.2321 72.9521 43.1689C65.185 45.0426 56.3855 44.944 48.815 42.9224H48.7167C45.3739 41.9855 42.4243 40.8022 39.9664 39.3723C34.4605 36.1673 31.3635 31.9762 31.3635 27.5879C31.3144 23.1503 34.4114 18.8112 39.9664 15.6063Z" fill="#94A3B8"/>
</g>
<defs>
<clipPath id="clip0_193_66">
<rect width="228" height="201" fill="white"/>
</clipPath>
</defs>
</svg>
