<svg width="422" height="295" viewBox="0 0 422 295" fill="none" xmlns="http://www.w3.org/2000/svg">
<g clip-path="url(#clip0_193_57)">
<path d="M0.0915409 134.353C0.0915409 134.202 0.228902 134.11 0.306728 133.986C0.375398 133.876 0.375403 133.73 0.489853 133.666L7.35685 129.681C7.60864 129.539 7.91535 129.539 8.15798 129.681L177.823 227.659C179.384 225.863 181.019 224.42 182.694 223.482L189.067 219.813C193.773 192.763 212.831 164.155 234.517 151.666C247.23 144.264 259.225 143.101 268.28 148.368L275.129 152.343C275.129 152.343 275.142 152.348 275.147 152.353C279.624 154.982 283.026 158.985 285.333 164.155L298.055 156.836C298.801 156.406 299.557 156.122 300.312 155.87C304.963 128.289 323.633 100.167 345.85 87.3562C346.651 86.8937 347.379 86.5318 348.125 86.1425L245.367 26.7798L245.326 38.9125C245.326 39.1919 245.175 39.4575 244.928 39.5995L238.061 43.5796C237.937 43.6529 237.795 43.6849 237.658 43.6849C237.52 43.6849 237.383 43.6483 237.259 43.5796L227.6 37.9919C227.353 37.8499 227.197 37.5842 227.202 37.2957L227.293 4.77694C227.293 4.6258 227.43 4.5342 227.508 4.41054C227.577 4.30061 227.577 4.15863 227.691 4.08993L234.558 0.105236C234.81 -0.036747 235.117 -0.036747 235.36 0.105236L404.979 98.0737C404.979 98.0737 404.984 98.0737 404.988 98.0737L405.048 98.1103C405.295 98.1882 405.533 98.2523 405.812 98.3989L412.313 102.2L412.569 102.329C414.707 103.506 415.911 106.057 415.957 109.533C415.957 116.431 411.416 124.441 405.624 127.767L399.206 131.476C399.073 132.26 398.909 132.983 398.753 133.721C401.802 132.484 404.649 132.438 406.861 133.748L413.728 137.733C413.86 137.811 413.915 137.939 413.979 138.067C416.419 139.656 417.88 142.684 417.921 146.719C417.921 148.038 417.747 149.293 417.514 150.553L419.706 151.789C419.706 151.789 419.711 151.798 419.716 151.803C419.716 151.803 419.725 151.803 419.729 151.803L420.183 152.073C421.336 152.746 422 154.166 422 155.975C422 159.562 419.587 163.73 416.525 165.456C415.595 166.01 414.675 166.285 413.837 166.285C413.265 166.285 412.743 166.125 412.276 165.868C412.171 165.855 412.066 165.841 411.965 165.786L410.578 164.994C408.586 167.297 406.458 169.18 404.201 170.499L353.797 199.628C346.326 203.943 339.124 206.118 332.633 206.118C327.908 206.118 323.559 204.964 319.75 202.647C319.75 202.647 319.75 202.647 319.746 202.647L313.259 198.9C308.846 196.358 305.353 192.236 303.032 187.024L290.268 194.407C289.375 194.943 288.588 195.227 287.942 195.428C283.378 222.19 265.368 249.909 244.09 262.893C244.021 262.962 243.93 263.017 243.829 263.058C243.385 263.365 242.904 263.672 242.46 263.933L192.107 293.017C189.827 294.34 187.611 295.005 185.615 295.005C184.351 295.005 183.221 294.647 182.177 294.116C182.163 294.116 182.154 294.139 182.14 294.139C182.017 294.139 181.893 294.111 181.774 294.052C181.687 294.011 181.605 293.96 181.527 293.91L174.87 290.008C172.133 288.423 170.627 285.121 170.627 280.71C170.581 272.067 176.605 261.767 184.347 257.251L192.313 252.671C192.093 252.235 191.882 251.8 191.685 251.352L190.413 252.089C188.733 253.069 187.098 253.559 185.615 253.559C184.539 253.559 183.541 253.298 182.658 252.781C182.484 252.693 182.291 252.579 182.149 252.455L175.791 248.796C174.761 248.205 173.95 247.234 173.378 246.039L18.1243 156.319L18.0831 168.502C18.0831 168.781 17.932 169.047 17.6848 169.189L10.8178 173.169C10.6942 173.242 10.5523 173.279 10.415 173.279C10.2776 173.279 10.1357 173.242 10.0121 173.169L0.398273 167.581C0.151061 167.439 -3.77174e-06 167.174 -3.77174e-06 166.885L0.0915409 134.366V134.353ZM7.7597 131.298L2.495 134.357L174.143 233.507C174.486 232.715 174.88 231.932 175.314 231.167C175.314 231.158 175.324 231.149 175.328 231.144C175.772 230.37 176.258 229.619 176.779 228.9L7.7597 131.298ZM198.2 249.9C198.241 250.055 198.282 250.179 198.282 250.197C198.305 250.252 198.351 250.399 198.365 250.458C198.392 250.509 198.415 250.564 198.429 250.623C198.443 250.655 198.452 250.692 198.461 250.729C198.708 251.516 198.983 252.35 199.399 253.303C199.564 253.71 199.729 254.122 199.894 254.493C200.095 254.956 200.329 255.396 200.553 255.845L207.287 251.961C205.57 250.839 204.014 249.41 202.65 247.71C201.711 246.524 200.896 245.205 200.168 243.799C199.935 243.345 199.766 242.837 199.555 242.361C199.111 241.358 198.681 240.346 198.337 239.251C198.145 238.637 198.008 237.978 197.847 237.336C197.586 236.292 197.344 235.239 197.17 234.126C197.055 233.402 196.987 232.656 196.913 231.904C196.854 231.291 196.74 230.709 196.703 230.077C196.698 230.15 196.68 230.228 196.675 230.297C196.479 232.404 196.378 234.419 196.396 236.292C196.396 236.315 196.396 236.338 196.396 236.361C196.396 240.217 196.776 243.9 197.527 247.335C197.687 248.118 197.893 248.897 198.204 249.9H198.2ZM193.352 253.907L186.347 257.938L191.621 261.034L191.809 260.924L198.626 256.967L195.517 255.162L193.352 253.907ZM225.535 257.489C225.956 257.498 226.478 257.425 226.945 257.397C227.572 257.361 228.2 257.329 228.845 257.269L229.486 257.132C230.676 256.948 231.871 256.678 233.048 256.33C234.352 255.95 235.785 255.423 237.314 254.759C237.928 254.493 238.582 254.187 239.246 253.806C239.315 253.774 239.379 253.751 239.448 253.729C239.448 253.729 239.452 253.729 239.457 253.729C240.089 253.413 240.762 253.055 241.389 252.693V252.703C241.48 252.62 241.572 252.561 241.659 252.519C246.022 249.977 250.279 246.648 254.317 242.613C269.168 227.805 279.121 205.72 279.079 187.67C279.079 186.809 279.038 185.998 278.988 185.013C278.988 184.899 278.979 184.793 278.97 184.693C278.956 184.555 278.947 184.418 278.947 184.331C278.901 183.621 278.814 182.906 278.722 182.247L278.585 181.308C278.493 180.543 278.361 179.81 278.2 179.146C278.15 178.968 278.109 178.784 278.072 178.606C278.045 178.464 278.013 178.326 277.949 178.015L277.875 177.781C277.839 177.626 277.807 177.502 277.692 177.232C277.692 177.213 277.651 177.016 277.647 176.998L277.555 176.687C277.518 176.535 277.486 176.407 277.381 176.169C277.07 175.056 276.621 174.03 276.186 173.073C275.966 172.587 275.76 172.134 275.426 171.635C275.211 171.209 274.955 170.783 274.63 170.311C274.529 170.142 274.414 169.945 274.295 169.83C274.204 169.739 274.135 169.624 274.099 169.5C274.085 169.487 274.08 169.468 274.071 169.455C273.984 169.377 273.911 169.285 273.861 169.184C273.851 169.166 273.824 169.125 273.796 169.074L273.146 168.3C272.936 168.039 272.675 167.742 272.345 167.398C272.24 167.256 272.13 167.146 271.97 166.986C271.622 166.638 271.233 166.294 270.816 165.955L270.184 165.456C270.152 165.442 270.116 165.424 270.084 165.406C270.07 165.406 270.065 165.383 270.052 165.378C270.047 165.378 270.038 165.374 270.033 165.369C269.933 165.328 269.846 165.273 269.768 165.195C269.617 165.044 269.42 164.907 269.196 164.792C269.163 164.774 269.017 164.682 268.99 164.664C268.903 164.6 268.806 164.531 268.706 164.481C268.669 164.462 268.523 164.362 268.486 164.339C268.376 164.302 268.175 164.21 268.092 164.123C267.923 164.018 267.753 163.954 267.584 163.885C267.534 163.862 267.419 163.812 267.378 163.784C267.241 163.688 267.099 163.633 266.961 163.574L266.65 163.427C266.43 163.322 266.211 163.244 265.959 163.171C265.822 163.143 265.725 163.088 265.68 163.065C265.68 163.065 265.648 163.047 265.634 163.038C265.515 163.001 265.396 162.965 265.268 162.91C265.084 162.91 264.929 162.887 264.791 162.759C264.613 162.722 264.453 162.667 264.16 162.566C263.926 162.511 263.743 162.52 263.578 162.456C263.487 162.447 263.386 162.42 263.294 162.374C263.272 162.365 263.249 162.36 263.226 162.351C263.13 162.337 263.024 162.319 262.882 162.291C262.544 162.213 262.251 162.168 261.825 162.094L261.527 162.076C261.294 162.035 261.019 161.989 260.745 161.989C260.626 161.989 260.552 161.994 260.442 161.939C259.985 161.897 259.49 161.897 259.028 161.897C257.989 161.907 257.169 161.957 256.377 162.072C256.322 162.085 256.263 162.076 256.199 162.081C256.13 162.099 256.043 162.122 255.988 162.126C255.306 162.172 254.697 162.268 254.125 162.42C254.056 162.438 253.987 162.447 253.919 162.447L253.823 162.438C253.589 162.475 253.356 162.511 253.044 162.612C251.95 162.859 251.003 163.125 250.018 163.468C249.409 163.642 248.846 163.862 248.237 164.128C248.137 164.169 248.1 164.206 247.99 164.206C247.967 164.215 247.78 164.293 247.757 164.302C247.665 164.343 247.574 164.38 247.491 164.407C247.436 164.439 247.386 164.462 247.34 164.476C247.358 164.471 247.4 164.453 247.445 164.421C247.445 164.426 247.441 164.426 247.436 164.426C247.377 164.458 247.308 164.49 247.239 164.508C247.12 164.577 246.974 164.636 246.892 164.659C246.873 164.668 246.708 164.751 246.69 164.765C246.676 164.769 246.667 164.778 246.653 164.783C245.935 165.053 245.193 165.433 244.483 165.804C243.765 166.166 243.005 166.569 242.236 167.023C241.618 167.375 241 167.728 240.368 168.177L239.91 168.484C239.31 168.832 238.738 169.244 238.152 169.665L237.644 170.027C237.081 170.416 236.559 170.81 236.01 171.264C235.424 171.717 234.838 172.166 234.284 172.629C233.249 173.453 232.32 174.287 231.212 175.299C231.111 175.409 230.997 175.523 230.942 175.569C229.907 176.563 228.84 177.589 227.87 178.651C226.918 179.65 225.938 180.745 224.88 182.009C223.745 183.346 222.843 184.482 222.024 185.59C221.346 186.493 220.664 187.404 220.028 188.316C219.149 189.57 218.261 190.931 217.341 192.428C217.299 192.511 217.258 192.57 217.162 192.726C216.452 193.848 215.807 194.993 215.171 196.12L214.818 196.711C214.749 196.917 214.63 197.164 214.53 197.315C213.861 198.529 213.175 199.88 212.483 201.36L212.355 201.616C211.787 202.834 211.266 204.053 210.67 205.445C210.084 206.929 209.498 208.418 208.99 209.943C208.656 210.822 208.34 211.798 208.043 212.883C208.001 213.007 207.965 213.167 207.91 213.378C207.736 213.95 207.557 214.523 207.411 215.192C207.191 215.943 206.971 216.694 206.829 217.486C206.651 218.251 206.468 219.016 206.326 219.827C206.147 220.578 206.019 221.324 205.909 222.176C205.827 222.593 205.744 223.019 205.694 223.472C205.52 224.595 205.433 225.721 205.332 226.958C205.209 228.231 205.149 229.532 205.149 231.048V231.327C205.149 232.23 205.191 233.049 205.236 233.965L205.397 235.903C205.41 236.026 205.424 236.15 205.433 236.297C205.433 236.32 205.465 236.53 205.465 236.558C205.557 237.41 205.69 238.22 205.822 239.008L206.088 240.304C206.266 241.065 206.445 241.82 206.674 242.562C206.88 243.309 207.141 244.06 207.489 244.903C207.699 245.407 207.91 245.915 208.212 246.487C208.331 246.808 208.487 247.11 208.661 247.348C208.711 247.417 208.903 247.779 208.926 247.857C209.082 248.2 209.315 248.548 209.604 248.997C210.002 249.611 210.4 250.188 210.826 250.742C211.49 251.553 212.099 252.19 212.749 252.758C212.763 252.771 212.776 252.785 212.79 252.799C212.804 252.813 212.822 252.826 212.831 252.84C213.12 253.129 213.413 253.385 213.797 253.674C214.131 253.967 214.461 254.214 214.823 254.438L215.129 254.658C215.271 254.732 215.418 254.819 215.573 254.924L215.862 255.103C215.912 255.121 215.953 255.144 215.995 255.167C216.361 255.368 216.727 255.574 217.244 255.794C217.363 255.867 217.469 255.9 217.771 256.009C217.84 256.037 217.904 256.074 217.959 256.115C218.032 256.17 218.146 256.22 218.27 256.238C218.343 256.252 218.416 256.28 218.48 256.312C218.847 256.5 219.282 256.619 219.63 256.733C219.721 256.733 219.941 256.793 220.023 256.825C220.197 256.884 220.353 256.939 220.403 256.962C220.504 256.962 220.65 256.999 220.765 257.045C221.145 257.155 221.639 257.246 222.051 257.287C222.102 257.287 222.335 257.292 222.39 257.301C222.88 257.393 223.379 257.306 223.841 257.461C223.887 257.471 224.024 257.471 224.185 257.475C224.647 257.512 225.1 257.521 225.581 257.512L225.535 257.489ZM190.665 219.909L196.076 223.046C196.282 221.988 196.497 220.926 196.73 219.845C196.84 219.282 196.987 218.718 197.133 218.132L197.797 215.567C197.806 215.526 197.825 215.48 197.843 215.443C197.861 215.375 197.884 215.306 197.907 215.251C197.921 215.187 197.939 215.132 197.953 215.1C197.953 215.054 197.966 215.013 197.976 214.967C197.976 214.958 197.966 214.949 197.971 214.94C201.437 197.842 211.765 180.094 224.935 168.589C224.949 168.575 224.958 168.562 224.972 168.552L225.192 168.333C225.764 167.76 226.336 167.187 226.895 166.675C227.499 166.07 228.099 165.516 228.708 164.957C230.722 163.12 232.901 161.343 235.186 159.676C236.101 159.021 237.012 158.412 237.928 157.803C237.928 157.803 238.093 157.693 238.097 157.693C238.811 157.217 239.507 156.781 240.208 156.356L238.07 155.114L234.92 153.287C213.825 165.649 195.32 193.509 190.665 219.909ZM236.532 152.366L241.787 155.417C241.883 155.362 241.966 155.33 242.062 155.275C243.485 154.459 244.831 153.754 246.095 153.2C246.333 153.081 246.571 152.971 246.814 152.865C247.033 152.769 247.253 152.669 247.542 152.531L248.132 152.288C248.549 152.119 248.965 151.949 249.327 151.84C250.288 151.473 251.282 151.093 252.229 150.823C253.076 150.525 253.965 150.305 254.821 150.09L255.109 150.017C256.926 149.6 258.515 149.357 259.921 149.27C260.845 149.179 261.752 149.128 262.612 149.128C263.23 149.128 263.871 149.165 264.521 149.201C264.723 149.211 264.906 149.211 265.107 149.22C265.373 149.247 265.638 149.284 265.904 149.316C266.142 149.348 266.38 149.385 266.659 149.412C266.755 149.426 266.856 149.444 266.957 149.462C258.762 144.988 248.027 146.023 236.532 152.366ZM286.908 168.136C287.201 169.024 287.471 169.968 287.7 170.92C288.245 170.503 288.799 170.128 289.362 169.803L303.727 161.517L303.173 161.197L300.262 159.511C300.262 159.511 300.257 159.511 300.253 159.511L298.454 158.462L286.02 165.612C286.354 166.413 286.638 167.238 286.903 168.14L286.908 168.136ZM301.64 157.711C301.635 157.752 301.626 157.794 301.622 157.839C301.594 158.023 301.567 158.206 301.539 158.389L305.339 160.597C305.568 160.478 305.797 160.359 306.021 160.258L305.252 159.809L301.64 157.716V157.711ZM301.91 156.017L307.298 159.145C307.605 157.404 307.967 155.756 308.397 154.143C312.618 136.286 322.932 117.759 335.989 104.573C336.08 104.431 336.199 104.316 336.327 104.234C341.363 99.0676 346.88 94.7348 352.726 91.3455C353.985 90.6173 355.189 89.9761 356.306 89.4356C357.372 88.9272 358.439 88.4142 359.391 88.0295C359.519 87.9608 359.638 87.9333 359.725 87.9104C360.586 87.544 361.497 87.228 362.367 86.9486C362.555 86.8524 362.77 86.7837 362.98 86.7562C363.685 86.4998 364.445 86.2753 365.178 86.1013C365.347 86.0463 365.53 86.0005 365.709 85.9639C365.828 85.9318 365.947 85.9089 366.098 85.8631C366.918 85.6433 367.714 85.5059 368.437 85.3868C368.543 85.3227 368.666 85.2906 368.804 85.2906C371.77 84.8921 374.224 84.8097 376.284 85.057L377.813 85.2082C377.928 85.2219 378.037 85.2402 378.152 85.2586C377.644 84.9837 377.099 84.7639 376.568 84.5303C375.996 84.283 375.451 83.9899 374.851 83.7883C374.206 83.5731 373.514 83.4494 372.841 83.2891C372.178 83.1334 371.537 82.9273 370.85 82.8265C370.177 82.7258 369.467 82.7258 368.772 82.68C368.044 82.6296 367.334 82.5334 366.588 82.5425C365.137 82.5609 363.649 82.6891 362.129 82.9364C358.27 83.5364 354.236 84.8647 350.13 86.8982C349.05 87.4158 347.882 88.0387 346.66 88.744C325.207 101.115 306.46 129.333 301.91 156.017ZM398.986 106.464L404.782 103.153C405.945 102.493 407.085 102.031 408.161 101.797L404.26 99.5073C402.745 98.9439 400.786 99.3241 398.712 100.556L397.352 101.348C397.352 101.348 397.361 101.385 397.37 101.403C397.439 101.573 397.503 101.752 397.595 101.962C398.149 103.419 398.616 104.93 398.986 106.464ZM243.733 38.4499L243.778 25.8637L238.514 22.8409L238.473 41.5002L243.733 38.4499ZM236.866 41.5048L236.911 21.4577C236.911 21.1737 237.063 20.9081 237.31 20.7661C237.557 20.6241 237.864 20.6241 238.106 20.7661L244.973 24.705C244.973 24.705 244.982 24.7325 244.996 24.7416L349.81 85.2677C349.933 85.2082 350.052 85.1715 350.176 85.112C351.549 84.4616 352.918 83.8937 354.278 83.3899C354.561 83.2845 354.841 83.1746 355.125 83.0738C356.567 82.5746 358 82.1624 359.41 81.8418C359.51 81.8189 359.62 81.7731 359.721 81.7548L228.895 6.17388L228.808 36.8423L236.866 41.5048ZM234.966 1.72659L229.701 4.7861L362.161 81.3059C363.553 81.0952 364.917 81.0036 366.258 80.9716C366.538 80.967 366.812 80.9578 367.087 80.9578C368.469 80.9624 369.825 81.054 371.138 81.251C371.312 81.2784 371.482 81.3197 371.656 81.3471C372.237 81.4479 372.823 81.5349 373.391 81.6723L234.966 1.72659ZM391.52 92.147C391.68 92.3165 391.808 92.5272 391.964 92.7012C392.531 93.3241 393.058 94.0066 393.571 94.6982C393.932 95.1836 394.303 95.6554 394.642 96.1775C395.141 96.9516 395.585 97.7989 396.02 98.6462C396.24 99.0676 396.501 99.434 396.707 99.8737L397.897 99.1821C398.506 98.8202 399.11 98.5271 399.71 98.2935C399.847 98.2386 399.98 98.2157 400.117 98.1699C400.52 98.0325 400.923 97.8859 401.312 97.808L391.515 92.1516L391.52 92.147ZM404.823 126.383C410.079 123.365 414.355 115.803 414.355 109.542C414.314 106.684 413.403 104.619 411.8 103.735L411.626 103.643C411.507 103.643 411.37 103.593 411.246 103.529C411.21 103.515 411.168 103.501 411.132 103.487C411.104 103.474 411.072 103.46 411.045 103.442C411.008 103.432 410.976 103.414 410.944 103.4C410.857 103.396 410.747 103.373 410.656 103.341C410.651 103.341 410.647 103.341 410.637 103.341C410.303 103.245 409.937 103.203 409.543 103.217C408.371 103.249 406.989 103.739 405.574 104.55L399.343 108.109C399.398 108.384 399.453 108.672 399.508 108.97L399.778 110.495C399.792 110.541 399.824 110.701 399.833 110.747C400.016 112.048 400.158 113.408 400.25 114.777C400.346 115.977 400.387 117.232 400.387 118.506C400.387 120.438 400.291 122.399 400.126 124.373C400.071 125.028 399.975 125.687 399.902 126.342C399.788 127.368 399.705 128.394 399.549 129.425L404.819 126.379L404.823 126.383ZM396.482 142.666L402.109 139.432L398.02 137.055C397.915 137.504 397.782 137.98 397.663 138.447C397.576 138.782 397.499 139.111 397.407 139.455C397.128 140.481 396.826 141.539 396.482 142.666ZM406.05 135.136C404.082 133.977 401.436 134.105 398.533 135.502L398.941 135.74L403.715 138.511C404.654 137.998 405.592 137.609 406.522 137.321C406.732 137.256 406.934 137.243 407.144 137.188C407.744 137.032 408.348 136.863 408.925 136.808L406.05 135.136ZM416.273 151.73L411.063 148.817L410.17 148.253C409.52 147.8 408.655 147.91 407.602 148.551C404.874 150.195 402.818 153.722 402.818 156.749C402.818 157.647 403.038 158.348 403.477 158.815C403.564 158.911 403.628 159.03 403.661 159.154L410.244 162.946C410.267 162.914 410.289 162.882 410.312 162.859C410.262 162.543 410.235 162.204 410.235 161.833C410.235 158.279 412.643 154.111 415.719 152.348C415.733 152.334 415.751 152.325 415.769 152.32C415.783 152.311 415.797 152.302 415.811 152.293C416.076 152.142 416.342 152.014 416.603 151.904L416.282 151.725C416.282 151.725 416.278 151.73 416.273 151.73ZM415.724 164.068C418.301 162.617 420.398 158.985 420.398 155.971C420.398 154.766 420.018 153.827 419.368 153.452L419.029 153.236C418.754 153.131 418.415 153.136 418.067 153.182C417.976 153.195 417.88 153.204 417.784 153.227C417.408 153.314 417.015 153.447 416.607 153.685C416.593 153.694 416.575 153.704 416.561 153.713C416.548 153.722 416.529 153.731 416.511 153.74C413.979 155.197 411.841 158.902 411.841 161.833C411.841 162.227 411.878 162.575 411.965 162.91C412.098 163.569 412.414 164.1 412.871 164.38C413.549 164.856 414.579 164.742 415.728 164.064L415.724 164.068ZM353 198.241L403.4 169.111C405.432 167.925 407.382 166.276 409.209 164.206L402.493 160.331C402.251 160.194 402.099 159.937 402.095 159.658C401.527 158.911 401.225 157.917 401.225 156.754C401.225 153.154 403.564 149.128 406.778 147.186C408.815 145.94 410.244 146.353 411.063 146.916L416.099 149.751C416.259 148.757 416.337 147.763 416.337 146.733C416.296 142.863 414.886 140.018 412.391 138.896C412.139 138.754 411.846 138.644 411.645 138.594C411.553 138.594 411.461 138.58 411.374 138.548C411.26 138.502 411.109 138.466 411.059 138.452C410.564 138.397 410.038 138.388 409.488 138.424C408.39 138.498 407.195 138.754 405.972 139.235C405.364 139.478 404.746 139.776 404.132 140.133L395.53 145.079C395.406 145.153 395.264 145.185 395.132 145.185C395.123 145.185 395.113 145.175 395.104 145.175C394.935 145.171 394.77 145.121 394.628 145.006C394.372 144.8 394.266 144.452 394.372 144.14C395.411 140.921 396.162 138.218 396.734 135.649C396.734 135.644 396.743 135.644 396.743 135.635C396.752 135.598 396.761 135.557 396.771 135.521C396.83 135.379 396.867 135.159 396.908 134.911C396.908 134.889 396.917 134.879 396.922 134.852C397.228 133.574 397.503 132.218 397.732 130.826C398.455 126.681 398.822 122.531 398.822 118.51C398.822 117.273 398.776 116.064 398.684 114.896C398.593 113.554 398.46 112.24 398.286 110.994C398.277 110.962 398.245 110.811 398.236 110.774L397.961 109.263C397.874 108.768 397.782 108.315 397.691 107.861C397.302 106.048 396.775 104.257 396.139 102.576C396.052 102.379 395.974 102.173 395.896 101.971C395.814 101.761 395.741 101.555 395.631 101.33C393.333 95.9852 389.936 92.0005 385.527 89.4814C385.138 89.2661 384.753 89.0509 384.337 88.8631C384.003 88.6982 383.668 88.5288 383.252 88.3868L381.856 87.828C381.599 87.7181 381.338 87.6448 380.922 87.5211C380.825 87.4845 380.72 87.457 380.615 87.4341C380.473 87.3975 380.326 87.3562 380.239 87.3242C379.708 87.1914 379.136 87.0585 378.55 86.9578C378.243 86.8799 377.937 86.8433 377.534 86.7929L376.682 86.6646H376.225C375.167 86.541 374.114 86.5043 372.993 86.5364C372.951 86.5364 372.906 86.541 372.86 86.5456C371.752 86.5822 370.575 86.6875 369.243 86.8662C369.174 86.8982 369.101 86.9211 369.023 86.9349C368.222 87.0631 367.398 87.1959 366.583 87.4112C366.428 87.4662 366.263 87.5028 366.098 87.5394C365.974 87.5669 365.842 87.599 365.649 87.654C364.867 87.8417 364.13 88.0616 363.457 88.3135C363.365 88.3455 363.251 88.3776 363.154 88.3776C363.095 88.4142 363.031 88.4463 362.967 88.4646C362.12 88.7349 361.227 89.0417 360.417 89.3806C360.302 89.4402 360.197 89.4677 360.096 89.4952C359.103 89.9028 358.068 90.3929 357.029 90.8967C355.949 91.4142 354.781 92.0371 353.559 92.7424C347.809 96.0722 342.384 100.341 337.435 105.429C337.403 105.466 337.367 105.493 337.33 105.526C337.307 105.558 337.28 105.59 337.247 105.617C324.347 118.615 314.156 136.895 309.986 154.542C309.473 156.47 309.056 158.439 308.722 160.551C308.04 164.751 307.729 168.507 307.765 172.061C307.765 175.881 308.104 179.366 308.809 182.719C308.983 183.63 309.198 184.519 309.473 185.439C309.592 185.833 309.711 186.195 309.889 186.74C310.063 187.386 310.32 188.027 310.613 188.76C310.645 188.87 310.668 188.925 310.7 188.975C310.736 189.035 310.768 189.099 310.791 189.163C311.048 189.932 311.386 190.706 311.803 191.444C312.632 193.102 313.593 194.599 314.751 196.038L314.889 196.225C315.104 196.523 315.31 196.802 315.635 197.096C317.031 198.749 318.656 200.114 320.611 201.282C329.14 206.471 340.649 205.395 353.032 198.25L353 198.241ZM313.625 197.247C313.602 197.215 313.584 197.187 313.561 197.16L313.451 197.013C312.238 195.506 311.217 193.917 310.352 192.186C309.926 191.421 309.551 190.578 309.267 189.749C309.161 189.566 309.102 189.396 309.056 189.259C308.781 188.577 308.502 187.867 308.278 187.047C308.154 186.671 308.031 186.296 307.907 185.883C307.747 185.357 307.61 184.835 307.481 184.313C306.914 184.748 306.341 185.123 305.774 185.435L304.387 186.236C306.492 191.036 309.665 194.828 313.625 197.247ZM289.453 193.024L302.963 185.187L304.986 184.038C305.687 183.653 306.396 183.108 307.097 182.517C306.895 181.505 306.785 180.447 306.648 179.403C306.57 178.798 306.447 178.207 306.387 177.589C306.218 175.807 306.131 173.975 306.131 172.056C306.113 170.329 306.186 168.543 306.328 166.693C306.373 166.079 306.474 165.415 306.543 164.788C306.648 163.771 306.731 162.781 306.886 161.714C306.502 161.879 306.117 161.984 305.733 162.209L290.167 171.186C289.462 171.594 288.771 172.134 288.089 172.711C288.29 173.7 288.409 174.758 288.547 175.798C288.62 176.357 288.734 176.884 288.794 177.461C288.963 179.206 289.055 181.006 289.055 182.865C289.055 184.784 288.968 186.708 288.812 188.622C288.762 189.259 288.666 189.882 288.597 190.519C288.487 191.558 288.4 192.607 288.245 193.638C288.67 193.464 289.059 193.257 289.453 193.024ZM195.751 269.104C195.668 269.109 195.581 269.136 195.494 269.15C195.101 269.228 194.684 269.37 194.212 269.658C191.489 271.257 189.433 274.779 189.433 277.852C189.433 278.727 189.648 279.391 190.092 279.872C190.184 279.968 190.243 280.087 190.28 280.211L196.941 284.04C196.881 283.692 196.854 283.321 196.854 282.931C196.854 279.405 199.312 275.131 202.334 273.4C202.627 273.231 202.92 273.089 203.213 272.974L197.66 269.901L196.817 269.319C196.506 269.122 196.144 269.072 195.751 269.104ZM206.01 274.527L205.621 274.312C205.323 274.225 204.989 274.234 204.646 274.275C204.545 274.289 204.44 274.302 204.334 274.325C203.95 274.417 203.552 274.554 203.14 274.792C200.603 276.249 198.461 279.977 198.461 282.936C198.461 284.113 198.818 285.02 199.445 285.441C200.15 285.927 201.231 285.835 202.338 285.176C204.92 283.673 207.022 280.018 207.022 277.028C207.022 275.823 206.633 274.884 206.01 274.527ZM191.301 291.629L199.184 287.076C199.102 287.044 199.024 287.003 198.946 286.962C198.896 286.939 198.832 286.948 198.781 286.921C198.713 286.902 198.644 286.875 198.58 286.834L189.103 281.383C188.861 281.246 188.71 280.985 188.705 280.705C188.128 279.959 187.835 279.002 187.835 277.852C187.835 274.197 190.175 270.171 193.388 268.28C193.549 268.183 193.681 268.151 193.832 268.078C195.11 267.423 196.158 267.382 196.927 267.634C197.216 267.725 197.467 267.854 197.687 267.986L206.788 273.134C207.653 273.629 208.244 274.554 208.487 275.75C208.565 276.148 208.61 276.579 208.61 277.032C208.61 278.869 207.956 280.861 206.912 282.615L241.641 262.559C242.08 262.293 242.565 261.987 243.009 261.675C243.046 261.648 243.092 261.625 243.138 261.606C264.274 248.695 282.083 221.178 286.441 194.691C287.1 190.803 287.439 186.822 287.439 182.87C287.439 179.178 287.091 175.711 286.404 172.537C286.139 171.227 285.786 169.885 285.365 168.621C285.04 167.517 284.692 166.56 284.248 165.589C282.069 160.322 278.732 156.333 274.346 153.759C273.861 153.488 273.375 153.227 272.876 153.003C271.897 152.536 270.931 152.142 270.01 151.849C269.173 151.583 268.28 151.368 267.378 151.189C267.213 151.162 267.048 151.13 266.879 151.093C266.728 151.056 266.577 151.024 266.467 151.006C266.202 150.983 265.941 150.946 265.68 150.91C265.437 150.878 265.199 150.841 264.901 150.823C263.359 150.731 261.729 150.704 260.04 150.873C258.689 150.96 257.187 151.189 255.471 151.583L255.196 151.652C254.39 151.853 253.553 152.059 252.706 152.353C251.776 152.618 250.815 152.985 249.84 153.356C249.469 153.47 249.103 153.626 248.732 153.777L248.173 153.997C247.935 154.116 247.697 154.226 247.455 154.331C247.235 154.427 247.015 154.528 246.763 154.652C245.317 155.293 243.815 156.076 242.176 157.038C241.091 157.67 240.052 158.302 238.802 159.136C237.9 159.736 237.003 160.34 236.11 160.977C233.876 162.603 231.743 164.339 229.774 166.139C229.188 166.679 228.602 167.224 227.989 167.829C227.426 168.351 226.867 168.905 226.309 169.464L226.089 169.688C225.737 170.041 225.384 170.403 225.027 170.769C224.647 171.158 224.267 171.552 223.928 171.887C223.571 172.299 223.205 172.707 222.843 173.114C222.321 173.696 221.795 174.282 221.273 174.91C220.472 175.839 219.694 176.819 218.902 177.809L217.913 179.045C217.18 179.989 216.48 180.983 215.779 181.967L215.139 182.87C214.658 183.538 214.218 184.193 213.774 184.858L213.101 185.861C212.19 187.276 211.284 188.728 210.419 190.184C209.521 191.705 208.597 193.276 207.782 194.87C207.745 194.943 207.708 194.998 207.653 195.085C206.971 196.454 206.285 197.819 205.639 199.207C205.635 199.221 205.625 199.234 205.621 199.248C205.085 200.407 204.55 201.575 204.046 202.761C203.739 203.412 203.46 204.085 203.185 204.744L202.92 205.386C202.613 206.123 202.311 206.906 202.05 207.685C202.036 207.763 202.009 207.85 201.986 207.909C201.725 208.564 201.464 209.21 201.212 210.011C200.814 211.166 200.42 212.315 200.068 213.511C200.054 213.556 200.036 213.602 200.013 213.643C199.88 214.161 199.715 214.747 199.546 215.269C199.523 215.476 199.463 215.65 199.418 215.782C199.418 215.796 199.413 215.805 199.408 215.819C199.395 215.888 199.372 215.961 199.344 216.03C199.106 217.239 198.964 218.466 198.8 219.689C198.713 220.349 198.575 220.999 198.511 221.659C198.324 223.55 198.227 225.451 198.227 227.347C198.227 235.326 200.196 242.026 203.913 246.721C205.374 248.535 207.072 250.014 208.954 251.109L209.109 251.2C208.78 250.761 208.45 250.303 208.162 249.794C207.878 249.364 207.603 248.933 207.475 248.626C207.383 248.484 207.306 248.352 207.241 248.187C207.013 247.852 206.82 247.477 206.706 247.147C206.427 246.634 206.193 246.08 205.937 245.461C205.584 244.614 205.305 243.803 205.09 243.02C204.856 242.269 204.664 241.468 204.472 240.639L204.197 239.292C204.055 238.449 203.918 237.611 203.813 236.613C203.803 236.558 203.758 236.146 203.758 236.095C203.744 235.972 203.73 235.848 203.735 235.747L203.588 233.952C203.547 233.104 203.501 232.262 203.501 231.327V231.048C203.501 229.5 203.561 228.112 203.684 226.807C203.684 226.765 203.689 226.72 203.694 226.678C203.78 225.561 203.877 224.393 204.051 223.275C204.101 222.808 204.193 222.337 204.28 221.888C204.376 221.068 204.522 220.257 204.701 219.506C204.833 218.759 204.98 217.912 205.204 217.166C205.351 216.341 205.589 215.53 205.804 214.798C205.946 214.138 206.138 213.52 206.312 212.952C206.362 212.746 206.413 212.54 206.454 212.425C206.752 211.331 207.086 210.3 207.429 209.402C207.933 207.886 208.532 206.37 209.137 204.831C209.137 204.827 209.215 204.653 209.219 204.644C209.746 203.407 210.277 202.175 210.858 200.92L210.986 200.663C211.682 199.175 212.383 197.787 213.106 196.486C213.165 196.395 213.22 196.28 213.298 196.083C213.298 196.083 213.298 196.083 213.298 196.074L213.715 195.337C214.365 194.187 215.024 193.015 215.706 191.943C215.747 191.865 215.784 191.806 215.88 191.654C216.851 190.074 217.757 188.677 218.65 187.399C219.295 186.479 219.991 185.554 220.678 184.642C221.511 183.511 222.436 182.348 223.594 180.983C224.67 179.696 225.672 178.578 226.638 177.566C227.632 176.485 228.721 175.436 229.77 174.424C229.77 174.424 229.884 174.328 229.957 174.264C229.99 174.213 230.031 174.168 230.077 174.126C231.207 173.096 232.16 172.244 233.217 171.401C233.776 170.939 234.375 170.471 234.952 170.032C235.52 169.551 236.087 169.129 236.696 168.708L237.163 168.378C237.79 167.925 238.404 167.49 238.994 167.142L239.393 166.871L239.425 166.849C240.079 166.427 240.73 166.01 241.375 165.639C242.167 165.172 242.964 164.755 243.71 164.384C244.456 164.009 245.243 163.638 246.081 163.262C246.187 163.203 246.315 163.139 246.47 163.084C246.539 163.052 246.608 163.024 246.681 163.006C246.695 162.997 246.713 162.992 246.727 162.988C246.777 162.955 246.827 162.933 246.887 162.914L247.262 162.763C247.358 162.717 247.491 162.653 247.656 162.621C248.361 162.323 248.938 162.113 249.483 161.962C250.476 161.613 251.479 161.33 252.554 161.087C252.875 160.981 253.191 160.926 253.639 160.862H253.763C254.404 160.697 255.072 160.592 255.681 160.565C255.791 160.528 255.997 160.468 256.231 160.482C257.041 160.368 257.92 160.313 258.904 160.313C259.431 160.313 260.003 160.313 260.461 160.359C260.575 160.359 260.699 160.359 260.841 160.404C261.152 160.418 261.445 160.464 261.601 160.496C261.77 160.496 261.999 160.496 262.127 160.551C262.47 160.597 262.814 160.647 263.02 160.725C263.148 160.725 263.249 160.748 263.34 160.771C263.45 160.771 263.555 160.794 263.652 160.835C263.697 160.844 263.748 160.862 263.793 160.881C263.844 160.89 263.89 160.904 263.945 160.917C264.132 160.936 264.315 160.981 264.508 161.032C264.599 161.059 264.691 161.091 264.791 161.119C264.869 161.151 264.952 161.183 264.892 161.188C265.162 161.188 265.368 161.27 265.501 161.33C265.593 161.343 265.68 161.371 265.757 161.417C265.867 161.472 265.945 161.499 266.087 161.531C266.16 161.549 266.243 161.591 266.321 161.636C266.682 161.737 266.994 161.847 267.314 162.003L267.561 162.117C267.781 162.213 268.001 162.314 268.147 162.41C268.39 162.511 268.632 162.617 268.811 162.726C268.907 162.772 269.003 162.823 269.095 162.882C269.214 162.942 269.301 163.001 269.365 163.047C269.539 163.134 269.708 163.249 269.878 163.368C269.919 163.391 269.951 163.423 269.992 163.441C270.207 163.551 270.413 163.67 270.56 163.78V163.789C270.56 163.789 270.564 163.798 270.569 163.803C270.569 163.803 270.574 163.803 270.578 163.807L270.587 163.794C270.615 163.815 270.642 163.838 270.67 163.862C270.67 163.862 270.72 163.908 270.747 163.94C270.83 163.977 270.903 164.027 270.967 164.082C271.091 164.165 271.173 164.242 271.192 164.265L271.759 164.691C272.244 165.076 272.675 165.465 273.087 165.878C273.288 166.079 273.444 166.235 273.522 166.358C273.581 166.418 273.636 166.491 273.696 166.551C273.879 166.739 274.067 166.931 274.218 167.119L274.346 167.275C274.346 167.275 274.378 167.311 274.396 167.329L275.032 168.099C275.078 168.154 275.124 168.227 275.156 168.291C275.156 168.296 275.161 168.3 275.165 168.305C275.289 168.42 275.367 168.552 275.422 168.644C275.463 168.703 275.504 168.768 275.536 168.845C275.719 169.061 275.857 169.29 275.944 169.441C276.287 169.926 276.584 170.426 276.772 170.82C277.134 171.337 277.381 171.878 277.619 172.413C278.081 173.426 278.558 174.516 278.846 175.592C278.979 175.858 279.038 176.105 279.02 176.128C279.144 176.361 279.18 176.581 279.166 176.687C279.29 176.939 279.354 177.168 279.418 177.415C279.45 177.511 279.501 177.653 279.519 177.832C279.556 177.978 279.588 178.125 279.62 178.276C279.652 178.418 279.679 178.56 279.73 178.734C279.917 179.485 280.064 180.291 280.155 181.088L280.293 182.027C280.384 182.732 280.48 183.479 280.531 184.285C280.531 184.372 280.54 184.459 280.549 184.551C280.563 184.697 280.576 184.848 280.581 185.105C280.622 185.948 280.668 186.79 280.668 187.679C280.714 206.128 270.574 228.662 255.439 243.758C251.309 247.889 246.942 251.306 242.455 253.916C242.455 253.921 242.4 253.944 242.346 253.976C242.295 254.022 242.24 254.068 242.181 254.1C241.549 254.457 240.876 254.819 240.24 255.144C240.144 255.213 240.02 255.272 239.846 255.364C239.219 255.671 238.587 255.987 237.937 256.248C237.932 256.248 237.928 256.252 237.919 256.257C237.919 256.257 237.914 256.257 237.909 256.257C236.348 256.939 234.856 257.489 233.496 257.883C232.26 258.249 230.992 258.538 229.761 258.725L229.06 258.872C227.778 259.028 226.657 259.106 225.622 259.106H225.576C225.045 259.106 224.523 259.106 224.066 259.06C223.878 259.06 223.667 259.06 223.457 259.014C222.994 259.014 222.527 258.954 222.189 258.877C222.166 258.877 221.96 258.877 221.932 258.872C221.383 258.826 220.834 258.73 220.367 258.597C220.348 258.597 220.325 258.588 220.307 258.579C220.293 258.579 220.28 258.574 220.266 258.57C220.266 258.57 220.238 258.551 220.225 258.542C219.968 258.501 219.744 258.432 219.401 258.309C219.346 258.3 219.295 258.286 219.259 258.277C218.778 258.148 218.284 258.006 217.798 257.777C217.478 257.7 217.185 257.571 216.979 257.434C216.782 257.361 216.594 257.292 216.489 257.214C216.04 257.035 215.633 256.816 215.184 256.568C215.084 256.527 214.997 256.477 214.9 256.422L214.635 256.257C214.543 256.193 214.456 256.138 214.369 256.092C214.337 256.078 214.141 255.95 214.108 255.927L208.88 252.895L192.006 262.66C190.216 263.695 188.508 265.087 186.956 266.718C182.305 271.618 179.05 278.676 179.087 284.681C179.087 285.377 179.133 286.037 179.178 286.6C179.229 286.696 179.261 286.806 179.27 286.916C179.302 287.411 179.403 287.878 179.609 288.505C179.833 289.339 180.185 290.099 180.721 290.882C180.826 291.061 180.936 291.23 181.133 291.441C181.348 291.684 181.618 291.913 181.902 292.142C181.966 292.192 181.998 292.243 182.072 292.293C184.315 293.979 187.675 293.74 191.301 291.638V291.629ZM175.672 288.611L178.565 290.31C178.368 289.87 178.203 289.421 178.08 288.963C177.86 288.304 177.736 287.736 177.686 287.159C177.631 287.008 177.631 286.893 177.636 286.852C177.558 286.321 177.512 285.748 177.498 285.144L177.329 285.047L172.288 282.125C172.563 285.217 173.74 287.498 175.676 288.615L175.672 288.611ZM172.229 280.234L173.772 281.131L177.53 283.311C177.558 282.94 177.64 282.56 177.69 282.185C177.741 281.759 177.791 281.342 177.869 280.916C177.988 280.257 178.157 279.602 178.336 278.937C178.446 278.525 178.542 278.122 178.67 277.71C178.899 276.991 179.183 276.281 179.476 275.567C179.618 275.214 179.737 274.866 179.892 274.518C180.337 273.533 180.836 272.562 181.385 271.614C181.422 271.55 181.449 271.481 181.49 271.417C182.081 270.409 182.731 269.434 183.427 268.499C183.646 268.202 183.889 267.936 184.118 267.648C184.608 267.029 185.102 266.415 185.633 265.848C185.935 265.522 186.251 265.234 186.563 264.927C187.057 264.441 187.547 263.97 188.064 263.535C188.417 263.237 188.778 262.976 189.14 262.706C189.451 262.472 189.749 262.202 190.069 261.987L184.754 258.867C177.906 263.095 172.403 272.489 172.234 280.243L172.229 280.234ZM193.942 252.391L195.815 253.477L198.36 254.951C198.214 254.613 198.063 254.242 197.893 253.806C197.495 252.918 197.206 252.034 196.946 251.205C196.946 251.196 196.941 251.182 196.936 251.173C196.932 251.155 196.923 251.136 196.918 251.113C196.872 251.017 196.849 250.916 196.813 250.806C196.758 250.655 196.707 250.5 196.666 250.33C196.492 249.776 196.355 249.286 196.231 248.814C196.222 248.782 196.213 248.745 196.204 248.718L193.059 250.541C193.338 251.191 193.622 251.814 193.947 252.391H193.942ZM189.602 250.687L191.585 249.538C191.585 249.538 191.608 249.501 191.626 249.487L195.279 247.399L195.833 247.078C195.613 246.007 195.49 244.871 195.339 243.753C195.261 243.171 195.142 242.613 195.082 242.022C194.899 240.181 194.798 238.294 194.798 236.365C194.798 236.365 194.798 236.347 194.798 236.338C194.78 234.616 194.863 232.779 195.023 230.869C195.069 230.324 195.156 229.733 195.215 229.175C195.33 228.071 195.421 226.994 195.595 225.84L190.39 228.836L190.101 229.014C189.891 229.143 189.671 229.275 189.465 229.417C189.41 229.491 189.351 229.546 189.273 229.601C188.893 229.857 188.508 230.155 188.128 230.48C187.744 230.782 187.4 231.08 187.057 231.423C186.288 232.193 185.606 232.981 185.029 233.768C183.944 235.216 183.079 236.7 182.383 238.303C182.374 238.326 182.369 238.349 182.36 238.371C181.82 239.622 181.422 240.941 181.147 242.402C181.06 242.883 180.973 243.359 180.927 243.891C180.881 244.367 180.84 244.848 180.84 245.324C180.84 245.484 180.84 245.686 180.886 245.97C180.886 246.203 180.886 246.391 180.932 246.698C180.932 246.927 180.964 247.119 181.064 247.495C181.101 247.875 181.197 248.242 181.394 248.69C181.509 249.034 181.618 249.341 181.792 249.579C181.838 249.648 181.866 249.721 181.888 249.799C181.939 249.854 181.98 249.904 182.017 249.968C182.159 250.22 182.282 250.371 182.474 250.527C182.571 250.614 182.653 250.715 182.699 250.829C182.676 250.77 182.662 250.756 182.699 250.788C182.8 250.893 182.9 250.994 183.12 251.168C183.161 251.21 183.289 251.274 183.468 251.37C185.056 252.295 187.24 252.057 189.612 250.683L189.602 250.687ZM176.587 247.39L179.902 249.295C179.902 249.295 179.902 249.281 179.897 249.277C179.659 248.745 179.517 248.2 179.499 247.829C179.38 247.468 179.325 247.101 179.339 246.868C179.274 246.561 179.274 246.277 179.297 246.167C179.229 245.892 179.229 245.594 179.229 245.333C179.229 244.811 179.274 244.28 179.32 243.753C179.371 243.176 179.462 242.649 179.558 242.113C179.828 240.726 180.286 239.205 180.895 237.689C181.641 235.962 182.571 234.364 183.733 232.816C184.356 231.968 185.093 231.121 185.917 230.292C186.306 229.903 186.695 229.564 187.098 229.248C187.432 228.955 187.808 228.662 188.183 228.396C188.224 228.336 188.275 228.291 188.334 228.245C188.627 228.025 188.948 227.828 189.259 227.645L195.037 224.306L191.086 222.016L189.767 221.251L183.482 224.869C181.802 225.813 180.153 227.26 178.588 229.156C177.896 230.027 177.26 230.965 176.706 231.941C176.148 232.917 175.667 233.924 175.278 234.946C175.278 234.946 175.278 234.95 175.278 234.955C174.417 237.135 173.959 239.342 173.959 241.344C173.959 242.787 174.193 244.014 174.674 245.109C175.108 246.135 175.768 246.923 176.578 247.385L176.587 247.39ZM16.4808 168.021L16.522 155.38L11.2985 152.366L11.2207 171.067L16.4808 168.021ZM9.61836 171.071L9.70079 150.978C9.70079 150.695 9.85644 150.429 10.0991 150.291C10.3509 150.149 10.653 150.149 10.9002 150.291L17.7214 154.226C17.7214 154.226 17.7214 154.235 17.726 154.235L172.568 243.712C172.568 243.712 172.568 243.698 172.568 243.694C172.426 242.961 172.357 242.182 172.357 241.349C172.357 240.295 172.485 239.191 172.705 238.069C172.778 237.703 172.911 237.336 173.007 236.965C173.172 236.315 173.305 235.669 173.538 235.019L1.68472 135.75L1.59771 166.418L9.61379 171.076L9.61836 171.071ZM326.498 183.323C326.457 183.3 326.434 183.273 326.402 183.245C326.379 183.227 326.347 183.213 326.329 183.195V183.181C326.329 183.181 326.32 183.177 326.315 183.172C326.201 183.058 326.082 182.929 326.018 182.829C325.871 182.682 325.725 182.531 325.633 182.398C325.097 181.812 324.603 181.171 324.09 180.392C324.026 180.314 323.971 180.241 324.012 180.273C323.834 180.099 323.738 179.92 323.674 179.755C323.376 179.32 323.111 178.839 322.868 178.317C322.827 178.248 322.799 178.193 322.781 178.139C322.749 178.097 322.717 178.051 322.694 178.015C322.667 177.964 322.635 177.891 322.607 177.804C322.506 177.635 322.387 177.392 322.296 177.067L322.268 176.993C322.245 176.957 322.222 176.916 322.204 176.874C322.099 176.714 322.039 176.554 322.012 176.453C321.975 176.371 321.92 176.256 321.884 176.114C321.783 175.908 321.719 175.693 321.627 175.4C321.49 175.029 321.348 174.653 321.206 174.232C321.156 174.081 321.101 173.879 321.041 173.627C321.028 173.545 321 173.467 320.977 173.38C320.932 173.219 320.886 173.055 320.877 172.958C320.776 172.601 320.675 172.239 320.657 171.983C320.556 171.681 320.501 171.328 320.455 171.003C320.428 170.888 320.41 170.783 320.378 170.554C320.295 170.293 320.295 170.036 320.309 169.949C320.162 169.18 320.066 168.374 320.043 167.705C319.984 167.471 319.975 167.242 319.975 167.055C319.934 166.853 319.929 166.661 319.929 166.45C319.92 166.409 319.915 166.368 319.911 166.336C319.892 166.262 319.883 166.198 319.883 166.139V165.543C319.883 165.543 319.888 165.534 319.888 165.529V165.333C319.842 164.984 319.837 164.577 319.837 164.174C319.819 160.249 320.323 156.154 321.275 152.032C325.4 134.156 337.925 115.629 352.739 107.051C359.606 103.107 366.203 101.664 371.729 102.874C371.77 102.878 371.807 102.892 371.843 102.897C371.99 102.919 372.132 102.947 372.269 102.979C372.393 103.011 372.521 103.039 372.654 103.057C372.722 103.066 372.796 103.089 372.864 103.126C372.983 103.153 373.043 103.19 373.121 103.222C373.139 103.226 373.144 103.222 373.162 103.226C373.208 103.235 373.253 103.249 373.286 103.258C373.249 103.249 373.226 103.249 373.267 103.272C373.281 103.332 373.437 103.29 373.514 103.313C373.665 103.364 373.83 103.423 374 103.519C374.485 103.661 374.952 103.845 375.451 104.092C375.483 104.106 375.52 104.133 375.552 104.147C375.968 104.326 376.362 104.527 376.746 104.733L376.733 104.761C376.733 104.761 376.742 104.765 376.746 104.77L376.76 104.742C376.76 104.742 376.765 104.747 376.769 104.747C376.838 104.784 377.026 104.912 377.195 105.058C377.209 105.068 377.223 105.072 377.241 105.086C377.291 105.122 377.378 105.182 377.314 105.15C377.351 105.168 377.401 105.2 377.451 105.237C377.703 105.388 377.955 105.544 378.211 105.745C378.266 105.777 378.317 105.814 378.363 105.851L378.532 105.974C378.733 106.071 378.852 106.185 379.008 106.336C379.017 106.345 379.168 106.469 379.177 106.474C379.415 106.671 379.612 106.863 379.818 107.069C380.111 107.312 380.381 107.632 380.514 107.811C380.592 107.889 380.674 107.967 380.752 108.067C380.922 108.187 381.031 108.324 381.1 108.448C381.155 108.498 381.205 108.562 381.247 108.64C381.384 108.773 381.462 108.864 381.585 109.029C381.791 109.286 381.993 109.542 382.089 109.716C382.286 109.964 382.437 110.165 382.657 110.49C382.941 110.967 383.224 111.443 383.449 111.883C383.545 112.029 383.664 112.212 383.792 112.547C383.842 112.643 383.888 112.744 383.897 112.762C383.925 112.803 384.044 112.977 384.067 113.023C384.076 113.051 384.09 113.083 384.099 113.119C384.14 113.188 384.177 113.261 384.199 113.344C384.227 113.403 384.254 113.463 384.277 113.536C384.323 113.605 384.364 113.687 384.392 113.788C384.401 113.811 384.41 113.838 384.419 113.861C384.433 113.893 384.438 113.944 384.447 113.98C384.474 114.031 384.515 114.081 384.534 114.122C384.763 114.722 384.991 115.318 385.175 115.959C385.175 115.959 385.175 115.964 385.175 115.968C385.312 116.312 385.417 116.619 385.449 116.838L385.509 117.044C385.587 117.319 385.66 117.571 385.674 117.745C385.715 117.864 385.765 118.025 385.783 118.226C385.815 118.318 385.829 118.405 385.838 118.487C385.875 118.588 385.912 118.721 385.925 118.858C385.925 118.872 385.935 118.886 385.935 118.895C386.04 119.151 386.063 119.394 386.067 119.6C386.099 119.687 386.127 119.788 386.145 119.898C386.2 120.054 386.205 120.205 386.205 120.315C386.241 120.493 386.282 120.677 386.292 120.892C386.328 121.025 386.342 121.153 386.342 121.254C386.379 121.423 386.388 121.588 386.388 121.748C386.42 121.876 386.429 121.991 386.434 122.092C386.47 122.225 386.475 122.362 386.479 122.504C386.488 122.541 386.479 122.564 386.488 122.6C386.498 122.646 386.525 122.692 386.525 122.733V122.962L386.539 123.173C386.557 123.315 386.557 123.379 386.553 123.351C386.612 123.644 386.612 123.887 386.612 124.194C386.63 124.254 386.653 124.322 386.658 124.368C386.704 125.028 386.704 125.738 386.704 126.438C386.704 126.438 386.704 126.443 386.704 126.447C386.704 126.512 386.704 126.557 386.704 126.621C386.704 128.096 386.644 129.379 386.521 130.542C386.429 131.518 386.333 132.452 386.2 133.331C386.154 133.858 386.058 134.431 385.962 134.953C385.815 135.8 385.642 136.638 385.458 137.508L385.307 138.223C385.033 139.272 384.758 140.325 384.497 141.374C384.36 142.111 384.126 142.885 383.838 143.6C383.787 143.792 383.728 144.035 383.655 144.14C383.412 145.015 383.124 145.876 382.817 146.655C382.67 147.095 382.501 147.502 382.322 147.924L382.167 148.285C381.476 150.09 380.679 151.913 379.827 153.662C379.553 154.327 379.219 154.954 378.871 155.609L378.715 155.893C378.701 155.957 378.678 156.012 378.651 156.067C378.143 157.038 377.635 157.959 377.081 158.93C376.38 160.152 375.607 161.398 374.732 162.704C374.16 163.647 373.601 164.462 373.075 165.149C372.654 165.809 372.182 166.418 371.72 167.018C370.154 169.143 368.437 171.186 366.638 173.082C365.805 174.007 364.922 174.845 364.052 175.665C363.923 175.798 363.782 175.931 363.635 176.064C363.525 176.16 363.415 176.261 363.292 176.384C362.678 176.948 362.065 177.516 361.506 177.942C360.897 178.505 360.192 179.068 359.533 179.581C359.487 179.618 359.442 179.645 359.391 179.668L359.272 179.76C358.677 180.222 358.082 180.69 357.469 181.129C357.203 181.308 356.979 181.441 356.773 181.564C356.553 181.729 356.329 181.89 356.205 181.945C355.408 182.508 354.566 183.021 353.765 183.497C352.584 184.184 351.43 184.752 350.446 185.229C349.736 185.554 349.072 185.842 348.377 186.099C348.235 186.177 348.061 186.268 347.827 186.328C347.809 186.332 347.791 186.337 347.768 186.337C346.834 186.68 346.028 186.941 345.245 187.143C344.33 187.404 343.529 187.587 342.759 187.711C342.027 187.858 341.359 187.949 340.53 188.009C339.912 188.05 339.33 188.091 338.712 188.091C338.007 188.091 337.353 188.045 336.744 187.999C336.565 187.999 336.428 187.954 336.455 187.949C335.828 187.899 335.219 187.766 334.633 187.628C334.208 187.574 333.777 187.468 333.439 187.335C333.233 187.285 333.031 187.23 332.876 187.184C332.853 187.175 332.83 187.166 332.807 187.161C332.697 187.138 332.601 187.097 332.523 187.056C332.505 187.047 332.482 187.042 332.459 187.033C332.404 187.028 332.354 187.015 332.299 186.996C332.189 186.955 332.102 186.914 332.019 186.882C331.818 186.836 331.685 186.749 331.685 186.731C331.511 186.671 331.392 186.621 331.209 186.52C331.154 186.506 331.104 186.488 331.053 186.465C330.577 186.25 330.06 185.998 329.547 185.645L329.364 185.549C328.705 185.146 328.087 184.706 327.473 184.198L327.295 184.042C327.226 183.978 327.158 183.923 327.093 183.859C326.961 183.767 326.846 183.662 326.723 183.543C326.723 183.543 326.718 183.534 326.714 183.529L326.503 183.319L326.498 183.323ZM322.016 170.746C322.053 171.003 322.085 171.255 322.195 171.626C322.236 171.946 322.319 172.23 322.424 172.606C322.442 172.725 322.474 172.835 322.506 172.936C322.543 173.064 322.58 173.192 322.593 173.27C322.635 173.43 322.676 173.595 322.717 173.714C322.85 174.117 322.987 174.474 323.129 174.864L323.198 175.079C323.248 175.253 323.28 175.358 323.33 175.436C323.404 175.56 323.417 175.555 323.417 175.702L322.721 176.105L323.491 175.935C323.568 176.013 323.628 176.123 323.665 176.233C323.71 176.32 323.752 176.407 323.77 176.453L323.875 176.76C323.893 176.829 323.939 176.925 323.999 177.021C324.04 177.09 324.077 177.158 324.095 177.232C324.177 177.332 324.223 177.438 324.251 177.511C324.26 177.534 324.273 177.557 324.287 177.58C324.507 178.074 324.759 178.523 325.038 178.917C325.084 178.981 325.097 179.045 325.12 179.123C325.162 179.164 325.299 179.343 325.331 179.393C325.386 179.462 325.441 179.531 325.51 179.636C325.889 180.232 326.324 180.795 326.851 181.377C326.942 181.505 327.043 181.606 327.139 181.697C327.171 181.729 327.226 181.798 327.263 181.844C327.281 181.862 327.313 181.858 327.332 181.876C327.332 181.876 327.368 181.908 327.382 181.922C327.863 182.055 328.357 182.142 328.851 182.229C329.03 182.261 329.204 182.316 329.387 182.338C329.941 182.416 330.518 182.448 331.09 182.476C331.25 182.485 331.406 182.513 331.566 182.513C332.248 182.526 332.949 182.494 333.654 182.435C333.713 182.43 333.768 182.435 333.823 182.43C337.66 182.068 341.803 180.626 346.074 178.139C363.846 167.893 378.266 142.913 378.221 122.454C378.211 120.493 378.07 118.638 377.804 116.898C377.744 116.522 377.621 116.206 377.552 115.84C377.511 115.615 377.442 115.409 377.397 115.19C377.168 114.113 376.966 113.005 376.632 112.025C376.531 111.727 376.371 111.498 376.261 111.209C376.124 110.857 375.954 110.55 375.803 110.211C375.455 109.428 375.153 108.594 374.728 107.898C374.549 107.605 374.306 107.39 374.114 107.11C373.945 106.863 373.743 106.643 373.565 106.409C373.098 105.805 372.677 105.145 372.146 104.623C371.93 104.545 371.72 104.495 371.45 104.458C370.15 104.179 368.785 104.051 367.371 104.078C363.127 104.165 358.416 105.64 353.527 108.443C351.403 109.675 349.329 111.127 347.319 112.744C347.228 112.817 347.127 112.881 347.035 112.959C346.898 113.074 346.765 113.202 346.628 113.316C332.161 125.348 321.344 146.472 321.421 164.178C321.421 164.504 321.421 164.838 321.467 165.232V165.552C321.467 165.749 321.467 165.933 321.499 166.079C321.499 166.093 321.49 166.107 321.495 166.125C321.499 166.166 321.513 166.203 321.513 166.244C321.513 166.276 321.513 166.304 321.513 166.336C321.513 166.368 321.513 166.4 321.513 166.427C321.513 166.569 321.513 166.693 321.536 166.78C321.554 166.844 321.559 166.908 321.559 166.977C321.559 167.114 321.559 167.247 321.604 167.476C321.646 168.223 321.733 168.96 321.879 169.812C321.879 169.903 321.879 170.041 321.897 170.119C321.93 170.242 321.948 170.352 321.962 170.462L321.17 170.572L322.012 170.751L322.016 170.746ZM331.612 184.972C331.768 185.009 331.891 185.077 331.987 185.128C332.042 185.16 332.097 185.187 332.28 185.251C332.294 185.251 332.358 185.297 332.404 185.325C332.473 185.338 332.537 185.361 332.596 185.393C332.651 185.421 332.702 185.448 332.688 185.453C332.784 185.458 332.88 185.48 332.972 185.517C333.059 185.54 333.141 185.572 333.219 185.618C333.233 185.618 333.251 185.632 333.265 185.641C333.292 185.65 333.315 185.659 333.342 185.668C333.347 185.668 333.356 185.668 333.365 185.677C333.484 185.719 333.645 185.755 333.901 185.819C334.212 185.938 334.519 186.016 334.972 186.085C335.503 186.204 336.03 186.328 336.501 186.364C336.643 186.364 336.753 186.401 336.79 186.415C337.957 186.497 339.037 186.516 340.512 186.415C341.166 186.369 341.771 186.287 342.453 186.145C343.194 186.025 343.936 185.861 344.806 185.613C345.653 185.389 346.449 185.123 347.296 184.812C347.383 184.78 347.507 184.702 347.603 184.702C347.635 184.683 347.814 184.592 347.85 184.583C348.468 184.363 349.086 184.097 349.741 183.79C350.684 183.337 351.801 182.787 352.932 182.132C353.692 181.679 354.497 181.193 355.353 180.598C355.495 180.52 355.637 180.415 355.903 180.227C356.104 180.108 356.315 179.975 356.539 179.829C357.111 179.416 357.688 178.968 358.265 178.519L358.334 178.477C358.393 178.409 358.48 178.349 358.576 178.294C359.185 177.818 359.835 177.296 360.453 176.732C361.03 176.288 361.607 175.757 362.161 175.244C362.275 175.129 362.404 175.01 362.536 174.896C362.655 174.786 362.779 174.671 362.948 174.507C363.782 173.719 364.642 172.903 365.443 172.006C367.215 170.146 368.886 168.149 370.424 166.07C370.868 165.493 371.312 164.916 371.752 164.242C372.278 163.56 372.814 162.763 373.368 161.856C374.238 160.555 374.993 159.342 375.675 158.146C376.193 157.239 376.673 156.369 377.149 155.467C377.163 155.403 377.191 155.343 377.218 155.284L377.442 154.862C377.763 154.258 378.079 153.676 378.349 153.017C379.2 151.262 379.979 149.485 380.665 147.704L380.835 147.31C380.995 146.925 381.155 146.554 381.302 146.119C381.613 145.317 381.878 144.516 382.153 143.577C382.203 143.481 382.235 143.353 382.309 143.092C382.588 142.395 382.789 141.722 382.918 141.044C383.192 139.94 383.467 138.878 383.733 137.87L383.874 137.188C384.053 136.34 384.227 135.516 384.369 134.682C384.456 134.202 384.547 133.679 384.593 133.148C384.731 132.246 384.817 131.344 384.909 130.391C385.028 129.26 385.088 128.064 385.088 126.447C385.088 125.733 385.042 125.018 385.001 124.35V124.112C385.001 123.947 385.001 123.828 384.969 123.676C384.959 123.622 384.937 123.447 384.937 123.397C384.923 123.296 384.923 123.182 384.941 123.054C384.941 123.022 384.904 123.003 384.904 122.971V122.944C384.904 122.944 384.904 122.925 384.904 122.916C384.872 122.829 384.904 122.742 384.904 122.655C384.904 122.628 384.895 122.6 384.895 122.582C384.845 122.476 384.813 122.247 384.813 122.124C384.785 122.046 384.772 121.959 384.772 121.867C384.772 121.771 384.772 121.68 384.772 121.62C384.744 121.533 384.772 121.506 384.772 121.414C384.712 121.304 384.68 121.171 384.68 121.043C384.68 120.956 384.666 120.869 384.639 120.727C384.616 120.686 384.625 120.635 384.611 120.589C384.593 120.525 384.579 120.47 384.575 120.402C384.575 120.374 384.557 120.347 384.561 120.319C384.538 120.246 384.529 120.177 384.529 120.104C384.479 119.999 384.451 119.88 384.451 119.76C384.451 119.683 384.451 119.554 384.442 119.522C384.415 119.463 384.392 119.394 384.378 119.321C384.328 119.22 384.3 119.119 384.3 119.005C384.259 118.913 384.232 118.753 384.222 118.648C384.145 118.441 384.09 118.208 384.09 118.089C384.062 117.878 384.003 117.695 383.948 117.498L383.865 117.196C383.833 116.999 383.765 116.788 383.618 116.431C383.444 115.867 383.229 115.345 382.968 114.786C382.936 114.713 382.913 114.571 382.904 114.452C382.895 114.429 382.886 114.411 382.876 114.388C382.771 114.264 382.707 114.159 382.707 113.985C382.652 113.907 382.611 113.816 382.583 113.71C382.515 113.609 382.373 113.353 382.345 113.284C382.29 113.174 382.24 113.064 382.208 112.968C382.194 112.932 382.13 112.84 382.025 112.661C381.805 112.222 381.54 111.782 381.292 111.37C381.123 111.113 381.004 110.948 380.775 110.655C380.652 110.454 380.496 110.257 380.249 109.959C380.198 109.881 380.189 109.872 379.997 109.68C379.956 109.629 379.919 109.583 379.892 109.529C379.86 109.496 379.827 109.464 379.827 109.464C379.795 109.428 379.768 109.391 379.74 109.359C379.631 109.29 379.548 109.213 379.484 109.084L379.608 108.988L380.12 108.599L379.319 108.906C379.182 108.732 378.981 108.484 378.72 108.26C378.523 108.067 378.363 107.907 378.047 107.646C377.973 107.591 377.905 107.541 377.717 107.371C377.708 107.371 377.419 107.161 377.41 107.156C377.387 107.138 377.355 107.115 377.332 107.092C377.291 107.069 377.25 107.042 377.213 107.009C377.017 106.854 376.815 106.73 376.591 106.593C376.513 106.551 376.417 106.501 376.362 106.437C376.344 106.428 376.307 106.4 376.275 106.373C375.968 106.18 375.634 106.016 375.304 105.846C375.446 106.048 375.547 106.295 375.684 106.501C375.964 106.927 376.206 107.385 376.458 107.843C376.93 108.695 377.351 109.588 377.722 110.536C377.923 111.058 378.124 111.576 378.298 112.125C378.633 113.174 378.889 114.292 379.113 115.441C379.214 115.964 379.342 116.458 379.42 116.999C379.667 118.725 379.827 120.53 379.837 122.454C379.887 143.421 365.105 169.029 346.889 179.531C345.492 180.346 344.105 181.033 342.737 181.633C342.187 181.876 341.652 182.041 341.107 182.251C340.306 182.554 339.504 182.861 338.712 183.085C338.076 183.268 337.449 183.392 336.822 183.529C336.13 183.676 335.439 183.813 334.762 183.9C334.157 183.978 333.562 184.019 332.967 184.047C332.628 184.061 332.271 184.129 331.937 184.129C331.63 184.129 331.351 184.047 331.044 184.033C330.673 184.015 330.284 184.065 329.918 184.024C329.991 184.074 330.065 184.116 330.138 184.166L330.321 184.262C330.353 184.276 330.385 184.299 330.417 184.317C330.783 184.578 331.163 184.775 331.607 184.977L331.612 184.972ZM317.832 183.103L317.585 182.586C317.37 182.137 317.15 181.688 317.013 181.276C316.733 180.68 316.491 180.012 316.285 179.293L316.184 178.968C316.061 178.574 315.928 178.152 315.887 177.873C315.694 177.346 315.543 176.755 315.438 176.123L315.36 175.693C315.273 175.258 315.14 174.58 314.985 173.668C314.696 172.161 313.932 167.824 312.961 160.061C312.961 160.029 312.961 159.855 312.961 159.823C313.007 139.015 327.766 113.554 345.868 103.066C347.31 102.237 348.715 101.568 350.089 100.991C350.519 100.808 350.963 100.597 351.384 100.442C351.389 100.442 351.394 100.442 351.403 100.442C351.403 100.442 351.412 100.442 351.416 100.442C356.379 98.7973 360.403 97.689 363.118 97.0019C363.136 96.9928 363.136 96.9745 363.154 96.9653C363.269 96.9241 363.566 96.7821 363.695 96.8508L363.914 96.7958C364.001 96.7729 364.084 96.7638 364.166 96.7455L364.281 96.7226C364.706 96.6264 365.068 96.5531 365.384 96.5027C365.526 96.4706 365.645 96.4432 365.75 96.4294C365.901 96.3791 366.016 96.3699 366.075 96.3699C366.853 96.2783 367.586 96.1867 368.231 96.15C369.129 95.9989 369.985 95.976 370.768 96.0081C371.55 96.0447 372.26 96.1409 372.855 96.2325C373.67 96.3287 374.435 96.4752 375.227 96.6676C375.437 96.718 375.652 96.7638 375.863 96.8325C376.037 96.8554 376.17 96.9103 376.238 96.9607C376.353 96.9607 376.508 97.0157 376.655 97.0844C376.943 97.1393 377.209 97.2218 377.474 97.3454C377.497 97.3546 377.52 97.3592 377.543 97.3684C377.896 97.4783 378.161 97.5974 378.413 97.7485C378.536 97.7851 378.642 97.8401 378.724 97.8767L379.315 98.1836C379.315 98.1836 379.319 98.1882 379.324 98.1882C379.452 98.2248 379.53 98.2752 379.553 98.2935C379.837 98.4035 380.116 98.5225 380.386 98.7195C380.445 98.7653 380.505 98.8019 380.574 98.834C380.725 98.9256 380.885 99.0172 380.981 99.1042C381.411 99.3882 381.842 99.6767 382.139 99.9332C382.336 100.029 382.496 100.167 382.638 100.281L382.821 100.428C383.293 100.803 383.714 101.225 384.145 101.655C384.698 102.159 385.197 102.764 385.642 103.295C386.53 104.38 387.28 105.521 387.958 106.817C387.967 106.831 388.068 106.996 388.072 107.009C388.182 107.197 388.306 107.408 388.407 107.655C388.475 107.751 388.526 107.861 388.553 107.98C388.553 107.98 388.562 108.003 388.585 108.035C388.613 108.086 388.649 108.168 388.677 108.26C388.704 108.315 388.727 108.361 388.741 108.402C388.75 108.42 388.759 108.443 388.768 108.461C389.038 109.043 389.341 109.73 389.492 110.316C389.551 110.435 389.579 110.55 389.597 110.619C389.808 111.095 389.945 111.47 390.036 111.869C390.05 111.906 390.068 111.942 390.078 111.979C390.398 112.936 390.627 113.893 390.879 115.034C390.892 115.089 390.925 115.354 390.925 115.414C391.185 116.696 391.359 117.965 391.442 119.156C391.598 120.718 391.675 122.151 391.675 123.539C391.675 124.721 391.63 125.893 391.538 127.066C391.538 127.638 391.492 128.165 391.442 128.705C391.396 129.127 391.355 129.498 391.305 129.864L391.272 130.203C391.25 130.487 391.222 130.771 391.163 131.018C391.071 131.719 390.975 132.383 390.842 133.029C390.705 134.064 390.517 135.086 390.284 136.153C390.009 137.495 389.684 138.892 389.295 140.252C389.295 140.343 389.249 140.458 389.212 140.563C389.203 140.582 389.217 140.605 389.208 140.623C389.203 140.637 389.185 140.682 389.171 140.724C388.851 141.914 388.484 143.156 388.077 144.365C387.844 145.166 387.56 146.009 387.244 146.833C386.823 148.043 386.36 149.243 385.852 150.447C378.889 167.384 366.899 182.018 353.788 189.584C349.306 192.163 344.888 193.812 340.644 194.489C339.248 194.705 337.93 194.806 336.666 194.806C336.666 194.806 336.666 194.806 336.662 194.806C336.222 194.806 335.787 194.792 335.357 194.769C335.343 194.769 335.334 194.764 335.32 194.76C335.206 194.76 335.087 194.76 334.926 194.723C334.913 194.723 334.904 194.723 334.89 194.723C334.615 194.723 334.327 194.714 334.166 194.682C333.75 194.682 333.315 194.627 333.004 194.544C332.596 194.508 332.216 194.435 331.841 194.352L331.255 194.233C331.154 194.196 331.049 194.169 330.948 194.141C330.765 194.091 330.591 194.045 330.532 194.013C329.772 193.812 329.057 193.569 328.453 193.312C327.794 193.074 327.112 192.744 326.585 192.401C326.196 192.268 325.853 192.085 325.67 191.925C325.67 191.925 325.665 191.925 325.661 191.92C325.661 191.92 325.651 191.92 325.647 191.915C324.951 191.48 324.351 191.054 323.921 190.679C323.651 190.519 323.44 190.363 323.271 190.18C323.033 190.042 322.85 189.864 322.68 189.699C322.671 189.69 322.653 189.68 322.639 189.667C322.639 189.667 322.625 189.653 322.621 189.648L322.612 189.639C322.612 189.639 322.607 189.639 322.602 189.635L322.387 189.415C322.355 189.383 322.323 189.351 322.296 189.323C322.296 189.323 322.296 189.319 322.296 189.314C320.501 187.564 319.004 185.476 317.837 183.09L317.832 183.103ZM327.267 190.967C327.858 191.334 328.439 191.618 329.039 191.833C329.616 192.08 330.261 192.296 331.04 192.511C331.136 192.552 331.246 192.58 331.356 192.607C331.493 192.644 331.63 192.685 331.653 192.699L332.17 192.795C332.482 192.864 332.802 192.928 333.265 192.978C333.576 193.056 333.883 193.093 334.299 193.102C334.533 193.138 334.817 193.125 335.041 193.138H335.407C335.485 193.138 335.558 193.161 335.627 193.184C336.076 193.207 336.533 193.193 336.991 193.184C337.316 193.18 337.632 193.193 337.957 193.175C338.749 193.129 339.559 193.047 340.406 192.919C344.453 192.268 348.688 190.688 352.996 188.21C365.814 180.813 377.543 166.473 384.383 149.843C384.882 148.666 385.33 147.488 385.747 146.293C386.058 145.487 386.324 144.685 386.557 143.898C386.965 142.679 387.326 141.456 387.642 140.279C387.647 140.256 387.66 140.238 387.67 140.215C387.679 140.183 387.688 140.156 387.697 140.124C387.706 140.096 387.734 140.032 387.761 139.972C387.761 139.936 387.766 139.899 387.779 139.867C388.141 138.507 388.457 137.147 388.732 135.823C388.956 134.792 389.135 133.808 389.281 132.763C389.414 132.099 389.505 131.472 389.606 130.739C389.656 130.505 389.675 130.286 389.688 130.075L389.725 129.663C389.771 129.301 389.817 128.939 389.858 128.545C389.904 128.069 389.949 127.583 389.949 127.002C390.041 125.806 390.087 124.675 390.087 123.534C390.087 122.202 390.014 120.818 389.858 119.284C389.78 118.135 389.615 116.935 389.395 115.817C389.304 115.542 389.313 115.364 389.327 115.364C389.093 114.296 388.874 113.394 388.585 112.519C388.549 112.451 388.517 112.377 388.503 112.299C388.42 111.942 388.301 111.622 388.164 111.306C388.095 111.177 388.068 111.058 388.008 110.88C387.839 110.289 387.583 109.693 387.349 109.18C387.308 109.112 387.28 109.052 387.262 108.997C387.221 108.924 387.189 108.851 387.175 108.768C387.175 108.768 387.161 108.745 387.129 108.695C387.106 108.649 387.065 108.585 387.033 108.489C387.01 108.443 386.987 108.397 386.969 108.347C386.91 108.173 386.813 108.003 386.63 107.696C386.617 107.669 386.525 107.522 386.511 107.495C385.912 106.341 385.225 105.292 384.41 104.298C383.984 103.785 383.54 103.249 383.014 102.764C382.634 102.384 382.249 102.003 381.851 101.687L381.617 101.5C381.549 101.445 381.448 101.362 381.279 101.257C380.885 100.95 380.491 100.689 380.033 100.387C379.942 100.309 379.846 100.258 379.759 100.208C379.635 100.13 379.521 100.066 379.425 99.9928C379.315 99.9103 379.113 99.8325 378.967 99.7729C378.953 99.7729 378.921 99.75 378.889 99.7317C378.784 99.7317 378.72 99.7088 378.61 99.608C378.578 99.5943 378.536 99.5668 378.491 99.5393L378.065 99.2737C377.854 99.2737 377.754 99.2645 377.603 99.1134C377.47 99.0309 377.328 98.9714 377.131 98.9027C377.044 98.8889 376.957 98.8615 376.879 98.8202C376.673 98.7195 376.481 98.6554 376.247 98.6187C376.147 98.605 376.028 98.5454 375.922 98.4813C375.826 98.4493 375.698 98.4035 375.684 98.3989C375.588 98.3989 375.488 98.3806 375.396 98.3439C375.227 98.2752 375.057 98.2477 374.805 98.1928C374.11 98.0187 373.409 97.8905 372.631 97.7943C372.072 97.7073 371.422 97.6157 370.713 97.5836C370.003 97.5516 369.229 97.5745 368.41 97.7119C367.705 97.7531 367.004 97.8401 366.286 97.9042C366.121 97.9867 366.029 97.9638 365.723 98.0325C365.718 98.0325 365.695 98.037 365.677 98.0416C365.627 98.0508 365.599 98.0599 365.526 98.0737C365.292 98.1012 364.981 98.1744 364.619 98.2523L364.07 98.3714C361.428 99.0264 357.18 100.181 351.929 101.921C351.485 102.086 351.018 102.306 350.56 102.498C349.288 103.039 347.987 103.657 346.651 104.426C338.928 108.901 331.827 116.174 326.274 124.652C326.233 124.716 326.196 124.785 326.155 124.849C325.409 125.999 324.685 127.167 323.994 128.353C323.976 128.38 323.962 128.412 323.944 128.444C323.234 129.672 322.557 130.913 321.92 132.177C321.907 132.205 321.897 132.232 321.884 132.26C321.243 133.524 320.639 134.802 320.071 136.089C319.975 136.304 319.897 136.524 319.805 136.744C319.334 137.843 318.876 138.951 318.459 140.064C318.34 140.385 318.244 140.714 318.13 141.035C317.773 142.047 317.411 143.055 317.104 144.067C316.972 144.507 316.871 144.951 316.747 145.391C316.495 146.288 316.23 147.191 316.019 148.084C315.909 148.546 315.841 149 315.745 149.462C315.562 150.337 315.365 151.217 315.223 152.082C315.136 152.609 315.095 153.127 315.026 153.653C314.921 154.446 314.797 155.247 314.728 156.035C314.678 156.612 314.678 157.171 314.65 157.743C314.614 158.462 314.554 159.191 314.554 159.901C315.516 167.572 316.271 171.859 316.555 173.361C316.711 174.268 316.839 174.937 316.921 175.358L317.013 175.839C317.1 176.361 317.228 176.87 317.42 177.429C317.484 177.777 317.599 178.125 317.699 178.459L317.814 178.821C318.002 179.471 318.212 180.058 318.482 180.648C318.633 181.07 318.826 181.468 319.018 181.867L319.27 182.393C319.81 183.497 320.428 184.532 321.124 185.503C321.815 186.47 322.58 187.363 323.413 188.174L323.504 188.274C323.605 188.316 323.697 188.375 323.774 188.453C323.926 188.609 324.086 188.764 324.241 188.883C324.301 188.929 324.351 188.98 324.397 189.039C324.457 189.117 324.553 189.19 324.823 189.364C325.423 189.864 325.922 190.221 326.544 190.587C326.681 190.697 326.869 190.793 327.245 190.94L327.267 190.967ZM222.092 251.649C221.886 251.599 221.685 251.548 221.571 251.512C221.41 251.466 221.236 251.42 221.062 251.329C220.948 251.301 220.82 251.26 220.756 251.237C220.6 251.182 220.412 251.122 220.225 250.999C220.092 250.948 219.996 250.907 219.904 250.861C219.863 250.848 219.575 250.724 219.538 250.706C219.401 250.646 219.213 250.573 219.19 250.523C218.947 250.426 218.686 250.303 218.531 250.17C218.311 250.06 218.146 249.955 218.014 249.863C217.647 249.634 217.281 249.405 216.956 249.144C216.782 249.057 216.658 248.947 216.567 248.86C216.48 248.8 216.397 248.736 216.329 248.668C216.068 248.53 215.898 248.324 215.752 248.159C215.67 248.09 215.587 248.022 215.605 248.022C215.404 247.889 215.253 247.742 215.157 247.61C215.093 247.568 215.038 247.523 214.992 247.481C214.781 247.271 214.575 247.06 214.369 246.817C214.278 246.748 214.195 246.666 214.145 246.574C213.788 246.135 213.44 245.649 213.12 245.187C213.033 245.1 212.973 245.017 212.973 244.994C212.781 244.807 212.634 244.6 212.483 244.316C212.474 244.303 212.373 244.152 212.364 244.138C212.154 243.822 211.998 243.556 211.911 243.313C211.723 243.034 211.577 242.755 211.481 242.539C211.417 242.466 211.311 242.287 211.275 242.196C211.179 242.104 211.119 242.049 211.119 241.884C211.114 241.871 211.114 241.852 211.11 241.839C211.082 241.784 211.046 241.701 211.046 241.701C210.977 241.545 210.922 241.399 210.876 241.239C210.849 241.184 210.826 241.133 210.808 241.074C210.73 240.904 210.647 240.703 210.551 240.465C210.455 240.222 210.359 239.979 210.226 239.599C210.103 239.26 209.975 238.921 209.851 238.55C209.805 238.417 209.759 238.239 209.723 238.083C209.599 237.776 209.544 237.483 209.512 237.272C209.411 236.91 209.311 236.553 209.265 236.182L209.192 235.834C209.15 235.642 209.105 235.445 209.077 235.248L209.031 234.982C208.981 234.707 208.935 234.428 208.949 234.268C208.839 233.686 208.789 233.072 208.752 232.477C208.748 232.312 208.688 232.129 208.697 231.968C208.697 231.964 208.697 231.955 208.697 231.946C208.647 231.836 208.619 231.721 208.619 231.602L208.629 231.419C208.629 231.373 208.601 231.332 208.61 231.291C208.597 231.181 208.587 231.062 208.578 230.952C208.569 230.833 208.56 230.714 208.528 230.517C208.482 229.857 208.482 229.202 208.482 228.497C208.391 207.57 223.173 181.945 241.435 171.369C246.667 168.365 251.868 166.775 256.482 166.775C256.757 166.775 257.091 166.78 257.215 166.821C257.7 166.821 258.149 166.862 258.68 166.913C258.836 166.913 258.95 166.94 259.046 166.963C259.188 166.963 259.307 166.991 259.44 167.018C260.058 167.105 260.626 167.252 261.015 167.375C261.138 167.375 261.248 167.394 261.353 167.43C261.436 167.439 261.518 167.467 261.591 167.508C262.177 167.618 262.777 167.82 263.391 168.126C263.679 168.227 263.967 168.323 264.155 168.424C264.173 168.433 264.187 168.438 264.206 168.442C264.425 168.525 264.608 168.635 264.769 168.726C264.851 168.777 264.933 168.823 264.943 168.836C265.13 168.91 265.327 169.02 265.487 169.152C265.863 169.345 266.234 169.583 266.554 169.83C266.957 170.082 267.309 170.329 267.621 170.604C267.621 170.604 267.63 170.613 267.634 170.618C267.644 170.627 267.653 170.632 267.662 170.636C267.717 170.682 267.776 170.742 267.831 170.787C267.982 170.916 268.138 171.044 268.275 171.181C268.39 171.287 268.5 171.401 268.669 171.548C269.003 171.882 269.292 172.216 269.562 172.537C270.189 173.215 270.725 173.906 271.159 174.589C271.192 174.63 271.224 174.671 271.251 174.713C271.787 175.574 272.194 176.325 272.537 177.081C272.606 177.172 272.67 177.264 272.716 177.355C272.725 177.378 272.734 177.401 272.743 177.424C272.812 177.548 272.84 177.658 272.849 177.708C272.862 177.74 272.927 177.873 272.936 177.91C272.986 178.015 273.036 178.12 273.027 178.12C273.229 178.523 273.38 178.871 273.568 179.48C273.595 179.535 273.618 179.6 273.636 179.668C273.668 179.751 273.7 179.842 273.732 179.934C273.755 180.007 273.774 180.071 273.865 180.296C273.911 180.433 273.957 180.575 273.989 180.713C274.227 181.477 274.424 182.251 274.543 182.929C274.639 183.264 274.689 183.607 274.749 183.992L274.799 184.276C274.849 184.542 274.891 184.807 274.881 184.926C275.023 185.682 275.119 186.488 275.184 187.482C275.202 187.601 275.216 187.725 275.211 187.752C275.211 187.757 275.211 187.766 275.211 187.77C275.229 187.922 275.243 188.068 275.257 188.215C275.266 188.348 275.275 188.49 275.307 188.691C275.353 189.351 275.353 190.061 275.353 190.761C275.353 192.401 275.261 194.082 275.078 195.708C275.032 196.546 274.936 197.407 274.794 198.282C274.703 198.776 274.616 199.28 274.524 199.802C274.387 200.787 274.154 201.818 273.938 202.67C273.938 202.885 273.874 203.054 273.833 203.15C273.522 204.662 273.096 206.095 272.762 207.158C272.345 208.55 271.883 209.892 271.375 211.276C271.05 212.178 270.697 213.062 270.335 213.95L270.033 214.701C269.662 215.59 269.287 216.433 268.87 217.271C268.784 217.44 268.71 217.61 268.637 217.784C268.55 217.976 268.463 218.173 268.367 218.37C267.859 219.392 267.341 220.367 266.801 221.315C265.771 223.285 264.613 225.222 263.377 227.059C262.864 227.856 262.347 228.648 261.802 229.381C261.221 230.201 260.667 230.956 260.14 231.652C259.609 232.353 259.096 232.999 258.602 233.604L258.112 234.194C257.76 234.62 257.403 235.051 257.055 235.431C255.855 236.874 254.578 238.188 253.479 239.287C252.779 239.984 252.083 240.639 251.264 241.367C250.472 242.109 249.725 242.745 249.075 243.231C248.7 243.542 248.302 243.84 247.908 244.124L247.519 244.417C247.473 244.477 247.423 244.532 247.358 244.578C246.58 245.173 245.779 245.787 244.909 246.323C244.172 246.813 243.435 247.266 242.703 247.715L242.433 247.88C241.723 248.306 240.968 248.686 240.318 248.984C239.631 249.382 239.063 249.652 238.647 249.776C237.932 250.156 237.255 250.449 236.527 250.692C235.126 251.191 233.931 251.553 232.745 251.823L232.379 251.901C232.1 251.961 231.839 252.016 231.564 252.048C231.468 252.084 231.363 252.107 231.276 252.107L229.124 252.391C228.511 252.432 227.939 252.455 227.394 252.455C226.666 252.455 225.979 252.419 225.293 252.341C224.633 252.245 224.02 252.153 223.242 251.984C222.843 251.892 222.44 251.8 222.106 251.686L222.092 251.649ZM259.321 168.594C259.179 168.594 259.064 168.566 259.046 168.548C258.89 168.548 258.771 168.52 258.694 168.507L258.776 167.705L258.492 168.484C258.057 168.442 257.654 168.406 257.064 168.392C256.881 168.355 256.666 168.36 256.487 168.36C252.152 168.36 247.226 169.876 242.24 172.739C237.786 175.317 233.542 178.816 229.687 182.929C218.119 195.268 210.025 213.158 210.089 228.474C210.089 229.408 210.135 230.297 210.222 231.19C210.222 231.194 210.222 231.199 210.222 231.204C210.222 231.259 210.226 231.327 210.226 231.359V231.442C210.268 231.579 210.272 231.694 210.272 231.772C210.313 232.536 210.405 233.269 210.547 234.107C210.547 234.314 210.588 234.497 210.62 234.68L210.675 235.001C210.698 235.156 210.734 235.317 210.767 235.477C210.799 235.623 210.831 235.765 210.858 235.939C210.895 236.255 210.982 236.544 211.078 236.91C211.124 237.172 211.16 237.332 211.266 237.652C211.298 237.785 211.33 237.918 211.366 238.028C211.485 238.385 211.604 238.706 211.778 239.173C211.865 239.434 211.952 239.645 212.058 239.91C212.135 240.098 212.204 240.286 212.282 240.428C212.291 240.446 212.3 240.469 212.309 240.492C212.314 240.506 212.323 240.52 212.332 240.533C212.433 240.739 212.552 240.978 212.621 241.243C212.621 241.257 212.63 241.28 212.63 241.303C212.676 241.371 212.717 241.449 212.744 241.55C212.79 241.614 212.84 241.692 212.863 241.742C212.978 241.967 213.088 242.191 213.307 242.544C213.426 242.819 213.541 243.007 213.761 243.341C213.788 243.382 213.907 243.561 213.93 243.607C213.994 243.739 214.04 243.794 214.095 243.849C214.099 243.858 214.218 244.019 214.223 244.023C214.26 244.06 214.351 244.179 214.379 244.22C214.717 244.687 215.052 245.15 215.409 245.576C215.418 245.585 215.422 245.594 215.431 245.603C215.464 245.636 215.496 245.668 215.523 245.7C215.679 245.883 215.839 246.052 216.022 246.236C216.379 246.332 216.75 246.391 217.112 246.465C217.432 246.529 217.748 246.616 218.078 246.661C218.412 246.707 218.764 246.716 219.108 246.744C219.492 246.776 219.868 246.826 220.261 246.831C220.591 246.836 220.93 246.803 221.264 246.794C221.68 246.781 222.097 246.785 222.523 246.744C222.875 246.712 223.237 246.639 223.594 246.584C224.015 246.524 224.427 246.478 224.853 246.391C225.247 246.313 225.65 246.19 226.052 246.089C226.451 245.988 226.844 245.91 227.247 245.787C227.696 245.649 228.149 245.475 228.602 245.31C228.969 245.182 229.33 245.072 229.697 244.926C230.278 244.692 230.873 244.413 231.464 244.138C231.706 244.023 231.949 243.932 232.196 243.813C233.038 243.4 233.885 242.947 234.737 242.448C252.509 232.202 266.929 207.222 266.884 186.758C266.884 184.798 266.751 182.948 266.49 181.207C266.398 180.603 266.211 180.09 266.087 179.508C265.858 178.427 265.661 177.319 265.327 176.339C265.112 175.711 264.791 175.198 264.535 174.612C264.178 173.797 263.858 172.94 263.418 172.216C263.102 171.699 262.681 171.296 262.324 170.829C261.834 170.183 261.381 169.496 260.813 168.946C260.809 168.946 260.799 168.942 260.795 168.942C260.273 168.813 259.756 168.676 259.312 168.603L259.321 168.594ZM225.489 250.719C226.561 250.829 227.682 250.857 228.95 250.765L231.024 250.504C231.102 250.472 231.18 250.449 231.262 250.44C231.528 250.408 231.775 250.362 232.045 250.303L232.407 250.225C233.505 249.973 234.636 249.634 235.996 249.148C236.651 248.929 237.25 248.668 238.006 248.283C238.441 248.141 238.917 247.912 239.567 247.541C240.226 247.229 240.936 246.872 241.59 246.483L241.856 246.323C242.584 245.878 243.312 245.434 244.062 244.926C244.062 244.926 244.067 244.926 244.071 244.921C244.827 244.385 245.623 243.808 246.379 243.231L246.951 242.805C247.317 242.535 247.693 242.265 248.05 241.962C248.768 241.381 249.487 240.794 250.27 240.057C250.989 239.425 251.662 238.802 252.339 238.12C252.875 237.584 253.452 236.997 254.052 236.361C254.642 235.733 255.251 235.055 255.837 234.35C255.979 234.194 256.107 234.03 256.244 233.874C256.633 233.443 257.023 233.022 257.366 232.55C258.327 231.387 259.348 230.04 260.497 228.41C261.038 227.695 261.532 226.93 262.031 226.156C263.244 224.352 264.37 222.469 265.387 220.523C265.931 219.575 266.426 218.627 266.92 217.633C267.007 217.463 267.08 217.294 267.154 217.12C267.236 216.927 267.328 216.73 267.424 216.534C267.827 215.723 268.188 214.921 268.541 214.074L268.838 213.332C269.191 212.462 269.539 211.601 269.859 210.708C270.358 209.352 270.812 208.037 271.219 206.673C271.544 205.628 271.951 204.25 272.281 202.706C272.281 202.702 272.345 202.477 272.35 202.473C272.574 201.483 272.798 200.499 272.936 199.537C273.027 198.983 273.119 198.474 273.21 197.984C273.343 197.178 273.43 196.381 273.481 195.552C273.659 193.94 273.751 192.319 273.751 190.738C273.751 189.804 273.705 188.915 273.622 188.022C273.613 187.908 273.609 187.812 273.6 187.693C273.581 187.574 273.568 187.45 273.568 187.39C273.526 186.63 273.435 185.893 273.293 185.054C273.293 184.89 273.256 184.725 273.224 184.555L273.155 184.157C273.114 183.887 273.078 183.621 272.986 183.282C272.858 182.59 272.679 181.88 272.446 181.125C272.414 180.987 272.377 180.877 272.368 180.832C272.304 180.708 272.258 180.566 272.208 180.424C272.185 180.355 272.167 180.291 272.135 180.232C272.116 180.186 272.098 180.14 272.084 180.085C272.038 179.993 271.997 179.874 271.974 179.732C271.86 179.398 271.741 179.128 271.59 178.821C271.576 178.789 271.507 178.651 271.498 178.615C271.448 178.514 271.402 178.409 271.407 178.409C271.393 178.381 271.347 178.248 271.32 178.166C271.292 178.12 271.265 178.065 271.246 178.015C271.205 177.96 271.091 177.786 271.068 177.731C270.761 177.048 270.413 176.389 269.937 175.619C269.901 175.583 269.868 175.537 269.841 175.496C269.452 174.868 268.957 174.236 268.353 173.577C268.092 173.274 267.831 172.963 267.575 172.707C267.401 172.56 267.227 172.4 267.058 172.235C266.911 172.097 266.765 171.96 266.609 171.832C266.316 171.58 266.028 171.374 265.648 171.136C265.323 170.888 264.993 170.682 264.631 170.499C264.412 170.375 264.219 170.302 264.004 170.192C264.137 170.38 264.233 170.613 264.361 170.806C264.64 171.227 264.883 171.685 265.135 172.139C265.606 172.99 266.032 173.884 266.408 174.836C266.609 175.358 266.806 175.881 266.98 176.43C267.309 177.479 267.566 178.587 267.786 179.737C267.886 180.264 268.014 180.763 268.088 181.308C268.33 183.035 268.481 184.835 268.481 186.754C268.532 207.721 253.749 233.329 235.534 243.831C234.119 244.655 232.723 245.347 231.335 245.952C230.878 246.153 230.434 246.286 229.98 246.465C229.06 246.822 228.14 247.161 227.238 247.417C226.721 247.564 226.213 247.665 225.705 247.779C224.871 247.967 224.047 248.123 223.242 248.223C222.747 248.283 222.257 248.319 221.767 248.342C221.374 248.365 220.966 248.439 220.577 248.439C220.014 248.439 219.469 248.379 218.92 248.333C218.815 248.324 218.705 248.342 218.604 248.333C218.7 248.393 218.778 248.461 218.879 248.521C218.989 248.599 219.098 248.672 219.364 248.819C219.469 248.901 219.579 248.956 219.95 249.13C219.987 249.162 220.042 249.185 220.138 249.222C220.22 249.258 220.307 249.295 220.385 249.336C220.431 249.35 220.586 249.414 220.628 249.432C220.682 249.464 220.737 249.492 220.82 249.519C220.893 249.542 220.989 249.597 221.053 249.639C221.081 249.657 221.186 249.693 221.259 249.716L221.355 249.753C221.493 249.762 221.626 249.808 221.74 249.881C221.772 249.904 221.832 249.927 222.01 249.973C222.129 250.014 222.289 250.051 222.518 250.106C222.866 250.22 223.214 250.303 223.667 250.403C224.29 250.536 224.867 250.623 225.466 250.71L225.489 250.719Z" fill="#94A3B8"/>
</g>
<defs>
<clipPath id="clip0_193_57">
<rect width="422" height="295" fill="white" transform="matrix(-1 0 0 1 422 0)"/>
</clipPath>
</defs>
</svg>
