<svg width="59" height="20" viewBox="0 0 59 20" fill="none" xmlns="http://www.w3.org/2000/svg">
<g clip-path="url(#clip0_3480_1872)">
<path d="M58.6115 3.00037C55.8121 2.34956 53.5808 1.43569 51.1538 0.753427C45.8202 -0.745996 38.8457 -0.0253408 34.7749 3.0766C34.0876 3.45329 33.4954 3.37524 32.9494 3.0766C31.8742 2.45805 30.977 2.46464 29.4736 2.46464C27.9703 2.46464 27.0731 2.45805 25.9979 3.0766C25.4519 3.37524 24.8597 3.45329 24.1724 3.0766C20.1017 -0.0253408 13.1272 -0.745996 7.79358 0.753427C5.36656 1.43569 3.13535 2.34956 0.335901 3.00037C0.138951 3.04616 0 3.22352 0 3.42676V5.19936C0 5.39449 0.128552 5.56645 0.315188 5.61976C1.23048 5.88116 1.80379 6.47564 2.01435 7.42344C2.80279 17.5459 7.3301 20.2748 13.3871 19.9787C20.3508 19.6423 24.7661 15.7409 26.2407 7.72625C26.2832 7.49541 26.2633 7.25905 26.1974 7.03386C25.9288 6.116 26.421 4.6803 29.4737 4.6803C32.5263 4.6803 33.0186 6.11604 32.75 7.03386C32.6841 7.25905 32.6642 7.49541 32.7067 7.72625C34.1813 15.7409 38.5965 19.6423 45.5603 19.9787C51.6173 20.2748 56.1446 17.5459 56.9331 7.42344C57.1436 6.47564 57.7169 5.88116 58.6322 5.61976C58.8189 5.56645 58.9475 5.39449 58.9475 5.19936V3.42676C58.9475 3.22352 58.8085 3.04616 58.6116 3.00037H58.6115ZM22.6613 13.6454C19.9186 18.2046 14.2672 20.1559 9.32399 18.2369C6.26342 17.0487 4.07897 14.2011 4.21758 7.08581C4.36152 0.897669 16.092 -0.201466 21.5362 2.9236C23.1061 3.82471 24.1125 5.46557 24.2661 7.27673C24.4424 9.35758 23.8649 11.6447 22.6613 13.6454ZM49.6234 18.2369C44.6802 20.1559 39.0288 18.2046 36.2861 13.6454C35.0825 11.6447 34.505 9.35758 34.6813 7.27677C34.8349 5.46557 35.8413 3.82471 37.4112 2.92364C42.8554 -0.201466 54.5859 0.897711 54.7298 7.08585C54.8684 14.2011 52.6839 17.0488 49.6234 18.2369L49.6234 18.2369Z" fill="black"/>
</g>
<defs>
<clipPath id="clip0_3480_1872">
<rect width="58.9474" height="20" fill="white"/>
</clipPath>
</defs>
</svg>
